<svg fill="none" xmlns="http://www.w3.org/2000/svg" viewBox="0 0 38 38">
  <circle cx="19" cy="19" r="19" fill="#22699D"/>
  <path d="m17.0469 17.6478-3.1699-3.17a.9337.9337 0 0 1-.2735-.6602V11.618c0-.6191.2459-1.2128.6837-1.6505l4.528-4.528a.9337.9337 0 0 1 1.3204 0l3.3921 3.3921a.9337.9337 0 0 1 0 1.3204l-3.3921 3.3921a.9338.9338 0 0 0 0 1.3205l.1017.1017a.9337.9337 0 0 0 1.3204 0l1.8333-1.8333c.2941-.2941.7969-.0858.7969.3301v9.5581a2.3341 2.3341 0 0 1-.6836 1.6505l-2.7379 2.7379a.9335.9335 0 0 0-.2734.6602v1.5625c0 .4952-.1968.9702-.547 1.3204l-1.4438 1.4438c-.4411.4411-1.1954.1287-1.1954-.4952v-5.1327a.9337.9337 0 0 0-.2735-.6602l-2.7461-2.7462a2.3338 2.3338 0 0 1-.6837-1.6505v-3.5111c0-.4159.5029-.6242.797-.3301l1.2118 1.2119a.9337.9337 0 0 0 1.3204 0l.1142-.1142a.9335.9335 0 0 0 0-1.3204Z" fill="#fff"/>
</svg>
