<svg viewBox="0 0 34 24" fill="none" xmlns="http://www.w3.org/2000/svg">
<path fill-rule="evenodd" clip-rule="evenodd" d="M9.51367 3.99884C9.51263 1.79079 11.3023 0 13.5107 0H25.5101C27.7193 0 29.5101 1.79086 29.5101 4V5C31.719 5.00028 33.5096 6.79103 33.5096 9V15C33.5096 17.2784 31.6093 19 29.3842 19C28.9401 20.7252 27.374 22 25.5102 22H13.5137C11.3045 22 9.51367 20.2091 9.51367 18V4.00771L9.51367 3.99884ZM29.5101 7C30.6145 7.00028 31.5096 7.8956 31.5096 9C31.5096 10.1044 30.6145 10.9997 29.5101 11V7ZM27.5177 11.1239C25.7884 11.5652 24.5096 13.1332 24.5096 15C24.5096 16.7997 25.6981 18.3217 27.333 18.8242C27.019 19.5176 26.3209 20 25.5102 20H13.5137C12.4091 20 11.5137 19.1046 11.5137 18V7.46656C12.1012 7.80606 12.7832 8.00036 13.5106 8.00036H25.5101C26.6147 8.00036 27.5101 8.89579 27.5101 10.0004C27.5101 10.3695 27.5177 11.1239 27.5177 11.1239ZM11.5137 3.999C11.5126 2.89531 12.407 2 13.5107 2H25.5101C26.6147 2 27.5101 2.89543 27.5101 4V6.53549C26.9218 6.19515 26.2387 6.00036 25.5101 6.00036H13.5106C12.4085 6.00036 11.5152 5.10773 11.5137 4.00636V4L11.5137 3.999ZM29.5096 13C30.2382 13 30.9213 12.8052 31.5096 12.4649V15C31.5096 16.1046 30.6142 17 29.5096 17H28.5096C27.4051 17 26.5096 16.1046 26.5096 15C26.5096 13.8954 27.4051 13 28.5096 13H29.5096Z" fill="#163150"/>
<path fill-rule="evenodd" clip-rule="evenodd" d="M5.42562 8.40904L1 6.84129L11.1469 2L17.2301 12.5108L12.3838 10.7754C11.5424 15.1928 14.5293 21.5722 23.0271 21.2764C15.5641 25.9501 4.26452 20.9412 5.42562 8.40904Z" fill="white" stroke="#163150" stroke-width="1.7" stroke-linecap="round" stroke-linejoin="round"/>
</svg>
