<svg viewBox="0 0 21 21" xmlns="http://www.w3.org/2000/svg">
<path d="M11.2109 7.0918C11.2109 6.53951 10.7632 6.0918 10.2109 6.0918C9.65865 6.0918 9.21094 6.53951 9.21094 7.0918V9.09177H7.21094C6.65865 9.09177 6.21094 9.53948 6.21094 10.0918C6.21094 10.6441 6.65865 11.0918 7.21094 11.0918H9.21094V13.0918C9.21094 13.6441 9.65865 14.0918 10.2109 14.0918C10.7632 14.0918 11.2109 13.6441 11.2109 13.0918V11.0918H13.2109C13.7632 11.0918 14.2109 10.6441 14.2109 10.0918C14.2109 9.53948 13.7632 9.09177 13.2109 9.09177H11.2109V7.0918Z"/>
<path fill-rule="evenodd" clip-rule="evenodd" d="M10.2109 0.0917969C4.68809 0.0917969 0.210938 4.56895 0.210938 10.0918C0.210938 15.6146 4.68809 20.0918 10.2109 20.0918C15.7338 20.0918 20.2109 15.6146 20.2109 10.0918C20.2109 4.56895 15.7338 0.0917969 10.2109 0.0917969ZM2.21094 10.0918C2.21094 5.67352 5.79266 2.0918 10.2109 2.0918C14.6292 2.0918 18.2109 5.67352 18.2109 10.0918C18.2109 14.5101 14.6292 18.0918 10.2109 18.0918C5.79266 18.0918 2.21094 14.5101 2.21094 10.0918Z"/>
</svg>
