<svg width="24" height="24" viewBox="0 0 24 24" fill="none" xmlns="http://www.w3.org/2000/svg">
<path fill-rule="evenodd" clip-rule="evenodd" d="M12.6869 4.89474C12.5452 4.65047 12.2834 4.5 12 4.5C11.7166 4.5 11.4548 4.65047 11.3131 4.89474L3.85626 18.3158C3.71458 18.5601 3.71458 18.861 3.85626 19.1053C3.99794 19.3495 4.25978 19.5 4.54314 19.5L19.4569 19.5C19.7402 19.5 20.0021 19.3495 20.1437 19.1053C20.2854 18.861 20.2854 18.5601 20.1437 18.3158L12.6869 4.89474ZM18.0831 17.9211L5.9169 17.9211L12 6.86842L18.0831 17.9211ZM11.1751 14.1L11.1751 10.35C11.1818 9.34916 12.8117 9.35172 12.8251 10.35L12.8251 14.1C12.8317 15.0992 11.1617 15.1017 11.1751 14.1ZM11.1751 16.35C11.1751 15.9358 11.5444 15.6 12.0001 15.6C12.4557 15.6 12.8251 15.9358 12.8251 16.35C12.8251 16.7642 12.4557 17.1 12.0001 17.1C11.5444 17.1 11.1751 16.7642 11.1751 16.35Z" fill="#B5BFC7"/>
</svg>
