<svg width="20" height="16" viewBox="0 0 20 16" xmlns="http://www.w3.org/2000/svg" fill="#55B6E2">
<path fill-rule="evenodd" clip-rule="evenodd" d="M9.23106 0.317685C9.60789 0.721436 9.58607 1.35423 9.18232 1.73106L3.53702 7H19C19.5523 7 20 7.44772 20 8C20 8.55229 19.5523 9 19 9H3.53702L9.18232 14.2689C9.58607 14.6458 9.60789 15.2786 9.23106 15.6823C8.85422 16.0861 8.22143 16.1079 7.81768 15.7311L0.317682 8.73106C0.115047 8.54193 0 8.27719 0 8C0 7.72282 0.115047 7.45807 0.317682 7.26895L7.81768 0.268948C8.22143 -0.107886 8.85422 -0.0860652 9.23106 0.317685Z"/>
</svg>
