<svg xmlns="http://www.w3.org/2000/svg" fill="none" viewBox="0 0 26 26"><rect width="100%" height="100%"/><g class="currentLayer"><path d="M14.1367 5.263v5.434c0 .5763-.0285 1.1432-.0855 1.7005-.057.551-.133 1.1368-.228 1.7575h-1.5865c-.095-.6207-.171-1.2065-.228-1.7575a16.7049 16.7049 0 01-.0855-1.7005V5.263h2.2135zm-2.5745 12.445c0-.1963.0348-.3832.1045-.5605.076-.1773.1773-.3293.304-.456.133-.1267.2881-.228.4655-.304.1773-.076.3673-.114.57-.114.1963 0 .3831.038.5605.114.1773.076.3293.1773.456.304.1266.1267.228.2787.304.456.076.1773.114.3642.114.5605 0 .2027-.038.3927-.114.57a1.4692 1.4692 0 01-.304.4465c-.1267.1267-.2787.2248-.456.2945a1.4084 1.4084 0 01-.5605.114c-.2027 0-.3927-.038-.57-.114a1.4199 1.4199 0 01-.4655-.2945c-.1267-.1267-.228-.2755-.304-.4465-.0697-.1773-.1045-.3673-.1045-.57z" fill="#DD4242"/><path clip-rule="evenodd" d="M13 25c6.6274 0 12-5.3726 12-12S19.6274 1 13 1 1 6.3726 1 13s5.3726 12 12 12z" stroke="#EF4747" stroke-width="2"/></g></svg>
