<svg viewBox="0 0 20 20" fill="none" xmlns="http://www.w3.org/2000/svg">
<path fill-rule="evenodd" clip-rule="evenodd" d="M7.21917 5.37531C7.56418 4.94405 8.19347 4.87413 8.62473 5.21914L13.6247 9.21914C13.8619 9.40891 14 9.69622 14 10C14 10.3038 13.8619 10.5911 13.6247 10.7809L8.62473 14.7809C8.19347 15.1259 7.56418 15.056 7.21917 14.6247C6.87416 14.1934 6.94408 13.5641 7.37534 13.2191L11.3993 10L7.37534 6.78088C6.94408 6.43587 6.87416 5.80657 7.21917 5.37531Z" fill="#424242"/>
<path fill-rule="evenodd" clip-rule="evenodd" d="M10 18C14.4183 18 18 14.4183 18 10C18 5.58172 14.4183 2 10 2C5.58172 2 2 5.58172 2 10C2 14.4183 5.58172 18 10 18ZM10 20C15.5228 20 20 15.5228 20 10C20 4.47715 15.5228 0 10 0C4.47715 0 0 4.47715 0 10C0 15.5228 4.47715 20 10 20Z" fill="#424242"/>
</svg>
