<svg viewBox="0 0 58 58" fill="none" xmlns="http://www.w3.org/2000/svg">
<path fill-rule="evenodd" clip-rule="evenodd" d="M29 6.5C16.5736 6.5 6.5 16.5736 6.5 29C6.5 41.4264 16.5736 51.5 29 51.5C41.4264 51.5 51.5 41.4264 51.5 29C51.5 16.5736 41.4264 6.5 29 6.5ZM0.875 29C0.875 13.467 13.467 0.875 29 0.875C44.533 0.875 57.125 13.467 57.125 29C57.125 44.533 44.533 57.125 29 57.125C13.467 57.125 0.875 44.533 0.875 29Z" fill="#55B6E2"/>
<path d="M29.0001 20.5625C30.5534 20.5625 31.8126 19.3033 31.8126 17.75C31.8126 16.1967 30.5534 14.9375 29.0001 14.9375C27.4468 14.9375 26.1876 16.1967 26.1876 17.75C26.1876 19.3033 27.4468 20.5625 29.0001 20.5625Z" fill="#55B6E2"/>
<path d="M31.8126 40.25V26.1875C31.858 22.4312 26.1648 22.4405 26.1876 26.1875V40.25C26.2332 43.9937 31.7897 44.0033 31.8126 40.25Z" fill="#55B6E2"/>
</svg>
