<svg viewBox="0 0 16 16" fill="none" xmlns="http://www.w3.org/2000/svg">
<path fill-rule="evenodd" clip-rule="evenodd" d="M1.25352 10.2475C1.25886 10.2294 1.27309 10.2167 1.27932 10.1985C1.29266 10.1622 1.31579 10.1305 1.33358 10.0951C1.37184 10.0207 1.41187 9.94903 1.46703 9.89006C1.47236 9.88371 1.47414 9.87464 1.48037 9.86829L9.82226 1.3303C9.84183 1.31124 9.86674 1.30399 9.8872 1.28675C9.90499 1.26498 9.91211 1.23776 9.93257 1.2178C10.7101 0.418525 11.6771 -0.0214844 12.6566 -0.0214844H12.6583C13.5337 -0.0214844 14.3353 0.326894 14.9784 0.985547C15.5674 1.58795 15.8778 2.32009 15.877 3.10485C15.8761 4.07559 15.4099 5.06085 14.531 5.95538C14.5132 5.97353 14.4892 5.97988 14.4696 5.99621C14.45 6.02161 14.4411 6.05155 14.4189 6.07514L5.8875 14.7184C5.86348 14.7429 5.83235 14.7519 5.80655 14.7728C5.77452 14.7991 5.73983 14.82 5.70335 14.8417C5.63663 14.8826 5.56991 14.9143 5.49696 14.9352C5.47828 14.9406 5.46494 14.9533 5.44626 14.9579L0.957278 15.9576C0.894116 15.9713 0.830064 15.9785 0.767791 15.9785C0.522258 15.9785 0.283842 15.8742 0.113926 15.6855C-0.10047 15.4496 -0.176087 15.1148 -0.0853465 14.8055L1.25352 10.2475ZM4.82353 13.2314L13.1645 4.7787C13.1832 4.76055 13.2072 4.75329 13.2268 4.73696C13.2455 4.71338 13.2535 4.68525 13.2748 4.66348C13.7962 4.13365 14.0951 3.56482 14.096 3.10213C14.0968 2.80455 13.9732 2.5342 13.7188 2.27382C13.4118 1.95992 13.0551 1.80024 12.6583 1.80024H12.6574C12.1628 1.80024 11.6299 2.05608 11.1949 2.50426C11.1745 2.52512 11.1478 2.53329 11.1255 2.55143C11.1086 2.57321 11.1015 2.59952 11.0819 2.61857L2.89307 10.9996L2.05595 13.8483L4.82353 13.2314Z" fill="#55B6E2"/>
</svg>
