<svg width="122" height="110" viewBox="0 0 122 110" fill="none" xmlns="http://www.w3.org/2000/svg">
<path d="M18.2464 99.0599C5.23968 91.7243 0 49.8069 0 21.9441C0 -11.8981 53.9379 3.7593 108.061 34.396C162.184 65.0328 34.4586 108.183 18.2464 99.0599Z" fill="#C6F0FF"/>
<path d="M93.8844 42.1621C100.48 48.2032 104.487 64.3537 98.6926 76.3125C95.3639 73.5386 84.0215 64.8469 84.0215 64.8469C87.5352 62.1962 86.2406 64.3537 93.8844 42.1621Z" fill="#009BE2"/>
<path d="M97.0899 47.5867C95.0556 55.9702 89.3845 63.614 89.3845 63.614C93.2063 66.2647 100.049 74.5249 100.049 74.5249L98.6926 76.3125C93.4529 71.6893 87.042 66.6345 84.0215 64.8469C87.5352 62.5661 86.179 63.4291 93.8844 42.1621C96.5967 44.3196 97.0899 47.5867 97.0899 47.5867Z" fill="#007BD2"/>
<path d="M94.9304 68.7935C94.9304 72.677 88.7661 72.677 88.7661 68.7935C88.7044 64.91 94.9304 64.91 94.9304 68.7935Z" fill="#FFD167"/>
<path d="M93.759 15.4719C99.4918 16.4582 101.218 21.8828 99.4918 26.4445C78.5947 80.9988 101.279 60.3483 30.7595 68.0537C20.5267 69.1633 9.73909 71.9372 9.86238 56.588C9.92402 46.2936 11.0336 16.4582 11.7117 12.3281C16.7048 24.965 44.0128 10.2323 93.759 15.4719Z" fill="#02BAEC"/>
<path d="M38.7126 43.9508C37.2948 39.3276 27.4935 42.2865 28.9113 46.9097C30.3291 51.533 40.1304 48.5741 38.7126 43.9508Z" fill="white"/>
<path d="M16.5826 41.3633C17.8155 56.7125 31.1305 52.7057 31.1305 58.9933C31.1305 66.8836 9.74023 65.8973 9.74023 52.9522C9.80188 46.2331 13.1306 43.2742 16.5826 41.3633Z" fill="#009BE2"/>
<path d="M35.4446 44.691C35.8144 46.0472 32.424 47.0335 31.9925 45.739C31.6227 44.3828 35.0747 43.3965 35.4446 44.691Z" fill="#C8B1FF"/>
<path d="M46.2949 45.1213C43.5826 45.0597 41.6716 43.0871 41.9799 40.6214C42.473 37.046 47.0346 34.642 50.2401 36.0597C44.8155 35.8132 41.3018 43.0254 46.2949 45.1213Z" fill="#009BE2"/>
<path d="M66.082 44.3831C63.3697 44.3215 61.4588 42.3489 61.767 39.8832C62.2601 36.2462 66.8217 33.9038 70.0272 35.3216C64.6026 35.075 61.0889 42.2873 66.082 44.3831Z" fill="#009BE2"/>
<path d="M51.6584 34.7657C52.0899 29.7109 44.0146 29.7109 43.5831 34.7657C43.1516 39.8204 51.2269 39.8204 51.6584 34.7657Z" fill="#1D314D"/>
<path opacity="0.5" d="M54.4918 40.6223C55.3548 34.3963 44.7521 34.7662 43.8891 41.0538C43.0878 47.2798 53.6288 46.9099 54.4918 40.6223Z" fill="white"/>
<path opacity="0.5" d="M74.2806 39.8825C75.1436 33.5948 64.541 34.0263 63.678 40.314C62.8766 46.5399 73.4793 46.1701 74.2806 39.8825Z" fill="white"/>
<path d="M50.7319 33.1012C50.9168 30.8204 47.2799 30.8204 47.0333 33.1012C46.7867 35.382 50.4853 35.382 50.7319 33.1012Z" fill="white"/>
<path d="M72.0607 33.8418C72.4922 28.7871 64.4169 28.7871 63.9854 33.8418C63.5539 38.8966 71.6292 38.9582 72.0607 33.8418Z" fill="#1D314D"/>
<path d="M71.1351 32.1774C71.32 29.8966 67.6831 29.8966 67.4365 32.1774C67.2516 34.5198 70.8885 34.5198 71.1351 32.1774Z" fill="white"/>
<path d="M29.4667 72.7999C29.4667 72.7999 22.3778 74.341 20.2819 74.8958C16.8915 75.7588 18.9257 82.6628 32.1791 76.067C33.9051 75.1423 33.1653 71.8136 29.4667 72.7999Z" fill="white"/>
<path d="M47.3411 68.916C46.4165 72.2448 46.1082 75.0803 44.2589 74.0941C34.1494 68.7311 44.1973 75.6968 47.3411 68.916Z" fill="#C8B1FF"/>
<path d="M29.589 68.9768L28.8493 73.2919C28.6028 74.4631 31.0685 75.5727 31.4383 73.9083C32.7945 66.3262 34.8904 66.8193 29.589 68.9768Z" fill="#FFD167"/>
<path d="M77.4852 60.5334C77.4852 60.5334 106.149 76.2524 119.033 104.115C89.5673 104.054 38.5266 108.677 38.5266 108.677C37.1088 82.7866 29.465 67.9306 24.8418 62.8142C24.8418 62.8142 55.1087 60.0402 77.4852 60.5334Z" fill="white"/>
<path d="M29.5273 48.4516L39.0204 71.1364C40.5615 72.9857 48.2669 71.6295 47.3423 68.2392C46.356 64.9104 38.9588 44.6914 38.9588 44.6914C39.267 48.1434 31.0068 50.9174 29.5273 48.4516Z" fill="#FFD167"/>
<path opacity="0.1" d="M34.0258 49.1285L40.0669 66.2037C40.0669 66.2037 44.197 65.464 45.2449 63.553C45.9846 64.2311 46.3545 65.464 46.3545 65.464C45.3066 67.7448 40.9915 68.7927 40.9915 68.7927L42.471 72.0598C38.6491 72.2447 39.6354 73.231 29.2793 47.834C30.8204 49.56 34.0258 49.1285 34.0258 49.1285Z" fill="#163050"/>
<path d="M9.67711 40.6219C12.7593 38.2794 18.9236 41.6698 15.5949 45.5533C12.2661 49.3752 11.4031 49.8684 11.4031 49.8684C18.0606 55.0464 28.7249 58.1286 28.7249 58.1286C29.2797 54.8615 31.4372 54.5532 31.4372 54.5532C32.6701 58.3751 35.444 60.5943 41.2385 58.2518C44.9371 56.7724 46.9097 61.334 44.5672 64.0463C42.2864 66.7586 36.7385 66.5737 34.8276 65.7723C18.8003 58.745 -2.83648 55.8478 5.79358 44.6287C8.01274 41.7931 9.67711 40.6219 9.67711 40.6219Z" fill="white"/>
<path d="M94.683 15.9642C94.868 11.6492 92.5255 10.7862 89.9365 10.478C92.5871 3.26572 85.6214 1.23149 82.7242 1.23149C79.827 1.23149 59.3614 0.676699 33.9643 4.31366C8.56727 7.95061 11.1563 10.2314 12.3892 13.93C16.0261 24.3477 61.3956 9.9232 94.683 15.9642Z" fill="#009BE2"/>
<path d="M11.7113 12.3269C10.2935 5.79267 72.7382 2.58722 83.5874 3.51187C89.6901 4.00502 90.7997 4.31323 89.9983 10.4776C89.5052 6.53239 88.0257 5.79267 85.2518 5.79267C85.1901 5.79267 43.3343 4.43652 18.492 10.7858C16.2729 11.3406 16.3962 13.4364 16.2112 16.272C13.1291 15.1625 11.7113 12.3269 11.7113 12.3269Z" fill="#007BD2"/>
<path d="M17.8164 13.3754C26.8163 9.36863 90.0008 5.0536 90.0008 10.4782C54.4325 8.13577 26.5081 14.5467 17.8164 13.3754Z" fill="#007BD2"/>
<path d="M16.5826 13.992C18.3703 20.6495 44.8153 9.18385 94.1916 13.6222C97.3971 19.1084 92.404 11.9578 45.0619 15.903C32.8565 16.9509 12.6991 20.4029 16.5826 13.992Z" fill="#007BD2"/>
<path d="M85.4992 95.1149C85.8075 103.437 65.7734 104.176 65.4652 95.8546C65.2186 87.4711 85.191 86.793 85.4992 95.1149Z" fill="#C8B1FF"/>
<path d="M28.7255 73.1699C26.5679 73.7864 22.6844 74.2795 20.6502 74.7727C17.0132 75.6357 19.5406 80.3822 26.1981 78.5945C28.109 78.1014 30.8213 77.0535 32.2391 76.0672" stroke="#163050" stroke-width="1.39949" stroke-miterlimit="10" stroke-linecap="round" stroke-linejoin="round"/>
<path d="M29.4645 69.5938C29.2796 70.8883 29.033 72.1211 28.7864 73.2924C28.5399 74.4636 31.0673 75.0184 31.2522 73.8471" stroke="#163050" stroke-width="1.39949" stroke-miterlimit="10" stroke-linecap="round" stroke-linejoin="round"/>
<path d="M84.4517 64.8479C85.8695 63.615 87.0407 62.0123 87.7188 60.163L99.8625 25.1496C101.404 20.7113 98.3831 15.9647 93.6982 15.4716C80.7531 14.2387 57.082 13.9921 27.0617 17.5675C11.8358 19.4168 6.65778 9.36889 16.9522 7.27302C43.1506 1.84841 70.0271 0.738825 83.6503 1.04704C88.2736 1.17033 91.5406 5.60865 90.2461 10.047" stroke="#163050" stroke-width="1.39949" stroke-miterlimit="10" stroke-linecap="round" stroke-linejoin="round"/>
<path d="M9.80078 56.4023C9.92407 69.4091 16.335 69.594 28.7869 68.2379" stroke="#163050" stroke-width="1.39949" stroke-miterlimit="10" stroke-linecap="round" stroke-linejoin="round"/>
<path d="M11.5888 11.8965C10.9724 20.8964 10.4176 31.3141 10.1094 40.4373" stroke="#163050" stroke-width="1.39949" stroke-miterlimit="10" stroke-linecap="round" stroke-linejoin="round"/>
<path d="M90 10.4166C90.3082 8.01248 88.4589 5.79332 85.9315 5.67003C72.2467 5.23853 49.8085 5.17688 20.2197 10.3549C13.8705 11.4645 16.2129 14.485 21.6992 13.7453C26.8772 13.0672 61.7674 8.50562 90.6164 10.6015C93.2055 10.7864 95.0548 13.1289 94.6849 15.6563" stroke="#163050" stroke-width="1.39949" stroke-miterlimit="10" stroke-linecap="round" stroke-linejoin="round"/>
<path d="M16.3342 12.4512L16.2109 16.5196" stroke="#163050" stroke-width="1.39949" stroke-miterlimit="10" stroke-linecap="round" stroke-linejoin="round"/>
<path d="M26.3232 62.6888C25.83 62.7504 25.3369 62.8121 24.8438 62.8121C35.2615 73.4147 38.5286 102.942 38.5286 108.675C38.5286 108.675 73.2338 104.545 119.035 104.113C119.035 104.113 108.309 78.2229 77.4872 60.5312C77.4872 60.5312 62.5695 60.5313 45.9258 61.3326" stroke="#163050" stroke-width="1.39949" stroke-miterlimit="10" stroke-linecap="round" stroke-linejoin="round"/>
<path d="M89.5059 19.541L91.6634 19.7259M94.1291 20.4657C96.8414 22.4383 95.3003 25.1506 93.8825 29.5272L94.1291 20.4657Z" stroke="white" stroke-width="1.39949" stroke-miterlimit="10" stroke-linecap="round" stroke-linejoin="round"/>
<path d="M10.5415 49.1905C14.0552 51.9644 16.9524 54.5535 28.8496 58.1904C28.8496 58.1904 28.9112 55.6014 31.2537 54.7384C32.6715 59.6699 38.2194 59.9164 41.2399 58.2521C45.0618 56.1562 47.8974 62.2589 44.0139 64.7246C37.5413 68.7931 31.377 63.8 24.1647 61.7041C8.87716 57.2041 -2.77343 52.6425 8.69223 41.6084C14.3018 36.1837 18.7401 42.7796 15.1031 45.8617C12.021 48.4508 11.4045 49.8686 11.4045 49.8686" stroke="#163050" stroke-width="1.39949" stroke-miterlimit="10" stroke-linecap="round" stroke-linejoin="round"/>
<path d="M38.7126 43.9508C37.2948 39.3276 27.4935 42.2865 28.9113 46.9097C30.3291 51.533 40.1304 48.5741 38.7126 43.9508Z" stroke="#163050" stroke-width="1.39949" stroke-miterlimit="10" stroke-linecap="round" stroke-linejoin="round"/>
<path d="M43.706 57.9423L38.7129 43.9492" stroke="#163050" stroke-width="1.39949" stroke-miterlimit="10" stroke-linecap="round" stroke-linejoin="round"/>
<path d="M36.8008 66.0811L38.5884 70.2728C40.3761 74.5878 48.6979 71.444 47.2801 67.6838L45.5541 63.0605" stroke="#163050" stroke-width="1.39949" stroke-miterlimit="10" stroke-linecap="round" stroke-linejoin="round"/>
<path d="M28.9121 46.9102L33.4737 57.8827" stroke="#163050" stroke-width="1.39949" stroke-miterlimit="10" stroke-linecap="round" stroke-linejoin="round"/>
<path d="M47.3417 68.916C45.3691 75.7584 46.417 75.2653 39.8828 71.7516" stroke="#163050" stroke-width="1.39949" stroke-miterlimit="10" stroke-linecap="round" stroke-linejoin="round"/>
<path d="M94.2539 42.2246C98.6922 47.5259 106.151 63.6148 98.6922 76.375" stroke="#163050" stroke-width="1.39949" stroke-miterlimit="10" stroke-linecap="round" stroke-linejoin="round"/>
<path d="M93.0809 71.3812C96.0398 70.395 95.6083 66.3881 92.4645 65.7101C90.6768 65.3402 88.9508 66.2648 88.6426 67.8676" stroke="#163050" stroke-width="1.39949" stroke-miterlimit="10" stroke-linecap="round" stroke-linejoin="round"/>
<path d="M35.4465 44.691C35.8164 46.0472 32.426 47.0335 31.9945 45.739C31.6246 44.3828 35.0766 43.3965 35.4465 44.691Z" stroke="#163050" stroke-width="1.39949" stroke-miterlimit="10" stroke-linecap="round" stroke-linejoin="round"/>
<path d="M75.6368 70.1491C72.6162 68.9162 70.9519 71.5052 68.4861 71.5052C65.8971 71.5052 65.1574 69.5326 63.3697 69.471C62.3218 69.4094 61.1506 70.0874 60.8424 71.197C59.6711 70.5806 58.8081 69.1628 57.0205 69.4094C53.3219 69.9025 53.4452 75.697 56.8972 75.3888C58.3766 75.2655 59.7944 72.923 56.9588 71.2587" stroke="#163050" stroke-width="1.39949" stroke-miterlimit="10" stroke-linecap="round" stroke-linejoin="round"/>
<path d="M53.8141 69.1028C52.5196 68.7329 48.7593 67.8699 46.4785 73.2945" stroke="#163050" stroke-width="1.39949" stroke-miterlimit="10" stroke-linecap="round" stroke-linejoin="round"/>
<path d="M83.65 77.6074C66.3282 77.6074 54.2461 79.2101 54.2461 79.2101" stroke="#163050" stroke-width="1.39949" stroke-miterlimit="10" stroke-linecap="round" stroke-linejoin="round"/>
<path d="M85.9925 80.4434C66.6981 80.8749 49.1914 83.0324 49.1914 83.0324" stroke="#163050" stroke-width="1.39949" stroke-miterlimit="10" stroke-linecap="round" stroke-linejoin="round"/>
<path d="M62.8143 84.6953C62.3211 84.757 61.8896 84.8186 61.3965 84.8186" stroke="#163050" stroke-width="1.39949" stroke-miterlimit="10" stroke-linecap="round" stroke-linejoin="round"/>
<path d="M87.8424 83.5879C87.8424 83.5879 85.0685 83.5879 81 83.6495" stroke="#163050" stroke-width="1.39949" stroke-miterlimit="10" stroke-linecap="round" stroke-linejoin="round"/>
<path d="M51.4096 34.4554C50.8548 39.3252 42.9645 39.6951 43.396 34.8869C43.8275 29.8938 51.9644 29.5239 51.4096 34.4554Z" stroke="#163050" stroke-width="1.39949" stroke-miterlimit="10" stroke-linecap="round" stroke-linejoin="round"/>
<path d="M50.6681 32.9149C50.4216 34.8875 47.2161 35.0724 47.3394 33.0998C47.5243 31.0656 50.9147 30.8806 50.6681 32.9149Z" stroke="#163050" stroke-width="1.39949" stroke-miterlimit="10" stroke-linecap="round" stroke-linejoin="round"/>
<path d="M71.8764 33.7177C71.3216 38.5875 63.4313 38.9574 63.8628 34.1492C64.3559 29.1561 72.4312 28.7246 71.8764 33.7177Z" stroke="#163050" stroke-width="1.39949" stroke-miterlimit="10" stroke-linecap="round" stroke-linejoin="round"/>
<path d="M71.1369 32.1772C70.8903 34.1498 67.6849 34.3347 67.8082 32.3622C67.9931 30.2663 71.3835 30.143 71.1369 32.1772Z" stroke="#163050" stroke-width="1.39949" stroke-miterlimit="10" stroke-linecap="round" stroke-linejoin="round"/>
<path d="M54.4317 40.4974C53.692 46.7851 43.4592 47.3398 44.0139 41.0522C44.6304 34.5797 55.1714 34.0865 54.4317 40.4974Z" stroke="#163050" stroke-width="1.39949" stroke-miterlimit="10" stroke-linecap="round" stroke-linejoin="round"/>
<path d="M74.0352 39.8815C73.2955 46.1691 63.0627 46.7239 63.6175 40.4363C64.2339 33.9021 74.7749 33.4089 74.0352 39.8815Z" stroke="#163050" stroke-width="1.39949" stroke-miterlimit="10" stroke-linecap="round" stroke-linejoin="round"/>
<path d="M54.4316 40.4986C56.5892 37.4165 62.7535 36.8617 63.6165 40.3753" stroke="#163050" stroke-width="1.39949" stroke-miterlimit="10" stroke-linecap="round" stroke-linejoin="round"/>
<path d="M68.4238 42.287L70.9512 40.3145" stroke="white" stroke-width="1.39949" stroke-miterlimit="10" stroke-linecap="round" stroke-linejoin="round"/>
<path d="M65.8359 41.3621L68.4866 39.4512" stroke="white" stroke-width="1.39949" stroke-miterlimit="10" stroke-linecap="round" stroke-linejoin="round"/>
<path d="M48.8848 43.0883L51.9053 40.8691" stroke="white" stroke-width="1.39949" stroke-miterlimit="10" stroke-linecap="round" stroke-linejoin="round"/>
<path d="M69.4109 50.1151C69.4109 50.1151 65.4041 54.615 58.5 54.3068M70.952 51.2863C69.7807 49.7452 67.8698 48.6973 67.8698 48.6973" stroke="#163050" stroke-width="1.39949" stroke-miterlimit="10" stroke-linecap="round" stroke-linejoin="round"/>
<path d="M17.0139 31.9927L16.8906 32.979M17.8153 22.1914L17.2605 29.7119L17.8153 22.1914Z" stroke="white" stroke-width="1.39949" stroke-miterlimit="10" stroke-linecap="round" stroke-linejoin="round"/>
<path d="M17.9395 46.7852C19.2956 45.1825 19.4189 42.3469 18.6792 40.7441" stroke="#163050" stroke-width="1.39949" stroke-miterlimit="10" stroke-linecap="round" stroke-linejoin="round"/>
<path opacity="0.1" d="M28.541 76.498C31.6232 84.2035 32.7944 96.1623 32.7944 96.1623" stroke="#163050" stroke-width="1.39949" stroke-miterlimit="10" stroke-linecap="round" stroke-linejoin="round"/>
<path d="M77.8566 102.018C94.1304 101.155 88.2127 84.4492 71.8772 85.2506C55.4801 85.9903 61.3978 102.881 77.8566 102.018Z" fill="#C8B1FF"/>
<path d="M70.5221 92.588C70.7687 92.588 71.0769 92.4647 71.2618 92.3415C72.5563 91.1086 72.5563 90.9853 72.9262 90.862C73.5426 90.5538 74.4056 90.6154 75.0837 90.9237C75.3303 91.0469 77.3645 92.0949 77.6111 92.1565C79.2754 92.7113 80.1384 91.0469 78.4124 90.1839C74.4056 88.1497 74.2207 88.0264 74.0974 88.0264C73.3577 87.7182 72.3097 87.6566 71.6933 88.1497C71.6317 88.2114 68.981 90.7387 69.0426 90.6771C68.118 91.4168 69.3509 92.6497 70.5221 92.588ZM72.7412 98.5674C73.7892 98.5058 73.8508 98.1976 75.8234 96.2866L78.8439 97.8277C79.6453 98.1976 80.8165 98.2592 81.433 97.7044C84.1453 95.0538 83.9603 95.2387 84.0836 95.1154C84.7001 94.1291 82.7891 92.8346 81.7412 93.5743C81.6795 93.636 80.385 94.9305 80.4467 94.8688C79.8919 95.362 78.9056 95.4236 78.2275 95.177C77.796 95.0538 76.0083 94.0675 75.7001 93.9442C75.2686 93.7593 74.6522 93.8209 74.2823 94.0675C74.2207 94.1291 72.8645 95.4236 72.9262 95.362C72.3714 95.9168 71.1385 95.9168 70.3372 95.4853C68.3646 94.499 68.2413 94.4373 68.118 94.3757C66.5153 93.8209 65.6523 95.4853 67.3166 96.2866C71.5084 98.3209 71.6933 98.6291 72.7412 98.5674Z" fill="#F2F2F2"/>
</svg>
