<svg viewBox="0 0 32 36" fill="none" xmlns="http://www.w3.org/2000/svg">
<path d="M30.4149 9.02967V25.4452C30.417 26.4763 30.0094 27.4658 29.2822 28.1949C28.555 28.924 27.5681 29.3327 26.5397 29.3305H12.4923C11.4639 29.3327 10.477 28.924 9.74983 28.1949C9.02264 27.4658 8.61506 26.4763 8.6172 25.4452V4.88533C8.6172 3.85487 9.02548 2.86663 9.75221 2.13799C10.4789 1.40935 11.4646 1 12.4923 1H22.4708C23.8435 1.00215 25.158 1.55614 26.1199 2.53794L28.9617 5.45194C29.8924 6.40922 30.4137 7.69284 30.4149 9.02967Z" fill="#E3EDFF"/>
<path d="M26.4329 2.48895L28.8549 5.01441C29.1073 5.29724 29.1724 5.70158 29.0214 6.04962C28.8704 6.39767 28.531 6.62564 28.1525 6.6333H26.3764C25.4847 6.6333 24.7618 5.9085 24.7618 5.01441V3.16888C24.7573 2.76948 24.9971 2.40803 25.3662 2.25784C25.7354 2.10765 26.1586 2.19934 26.4329 2.48895Z" fill="#163150" stroke="#163150" stroke-width="1.69158" stroke-linecap="round" stroke-linejoin="round"/>
<path fill-rule="evenodd" clip-rule="evenodd" d="M30.4149 9.02967V25.4452C30.417 26.4763 30.0094 27.4658 29.2822 28.1949C28.555 28.924 27.5681 29.3327 26.5397 29.3305H12.4923C11.4639 29.3327 10.477 28.924 9.74983 28.1949C9.02264 27.4658 8.61506 26.4763 8.6172 25.4452V4.88533C8.6172 3.85487 9.02548 2.86663 9.75221 2.13799C10.4789 1.40935 11.4646 1 12.4923 1H22.4708C23.8435 1.00215 25.158 1.55614 26.1199 2.53794L28.9617 5.45194C29.8924 6.40922 30.4137 7.69284 30.4149 9.02967Z" stroke="#163150" stroke-width="1.69158" stroke-linecap="round" stroke-linejoin="round"/>
<path opacity="0.15" d="M26.9515 12.9302H21.9138C21.9138 13.0436 21.9138 13.165 21.9541 13.2864C22.8393 13.4273 23.6474 13.874 24.2389 14.5491H26.9515V16.168H25.1108C25.1989 16.4897 25.2424 16.822 25.2399 17.1555V17.6088H26.9515V19.2277H25.2399V20.8466H26.9515V22.4655H25.2399V24.3515C25.2519 26.0725 24.8766 27.7741 24.142 29.3296H12.4923C11.4639 29.3317 10.477 28.9231 9.74983 28.194C9.02264 27.4648 8.61506 26.4753 8.6172 25.4442V5.1515C9.79926 4.69586 11.0565 4.46793 12.3228 4.47966C16.6093 4.38906 20.4172 7.20923 21.5908 11.3437H26.9515V12.9302Z" fill="#163150"/>
<path d="M1.00391 17.999H22.5755V25.7535C22.5755 30.8493 18.4625 34.9839 13.3801 34.9973H11.0228C5.48819 34.9929 1.00391 30.4932 1.00391 24.944V17.999Z" fill="#1EB8E7"/>
<path opacity="0.25" d="M3.87797 20.4274V26.4982C3.76463 28.7512 4.59421 30.9495 6.1667 32.563C7.73919 34.1765 9.91192 35.0588 12.1611 34.9973H10.0298C5.04051 34.9973 1.00391 31.2577 1.00391 25.6564V17.999L3.87797 20.4274Z" fill="white"/>
<path fill-rule="evenodd" clip-rule="evenodd" d="M1.00391 17.999H22.5755V25.7535C22.5755 30.8493 18.4625 34.9839 13.3801 34.9973H11.0228C5.48819 34.9929 1.00391 30.4932 1.00391 24.944V17.999Z" stroke="#163150" stroke-width="1.69158" stroke-linecap="round" stroke-linejoin="round"/>
<path d="M22.5754 17.5928C22.5826 18.3283 22.318 19.0405 21.8327 19.5921C21.3844 20.1056 20.7372 20.4005 20.0566 20.4016H3.52268C2.04988 20.3104 0.9257 19.0459 1.00384 17.5685C0.996719 16.833 1.26128 16.1208 1.74657 15.5692C2.19489 15.0558 2.84207 14.7608 3.52268 14.7598H20.0808C20.9666 14.7726 21.7746 15.2693 22.1879 16.0549C22.4515 16.5237 22.5853 17.0547 22.5754 17.5928Z" fill="#0C9FE1"/>
<path d="M6.04297 18.807V14.7598H13.2443L7.48807 18.807H6.04297ZM20.0823 14.7598H16.853V18.807H18.29L22.1975 16.0549C21.7828 15.2668 20.9709 14.7697 20.0823 14.7598Z" fill="#007FC6"/>
<path d="M19.7667 14.7598H3.83696C2.27231 14.7598 1.00391 16.0282 1.00391 17.5928C1.00391 19.1575 2.27231 20.4259 3.83696 20.4259H19.7667C21.3313 20.4259 22.5997 19.1575 22.5997 17.5928C22.5997 16.0282 21.3313 14.7598 19.7667 14.7598Z" stroke="#163150" stroke-width="1.69158" stroke-linecap="round" stroke-linejoin="round"/>
<path d="M3.87891 17.4316V14.7604C3.87891 10.29 7.4934 6.66602 11.9521 6.66602C14.0933 6.66602 16.1467 7.51882 17.6607 9.03682C19.1748 10.5548 20.0253 12.6137 20.0253 14.7604V17.4316C20.0253 17.7311 19.1211 17.982 18.007 17.982C16.8929 17.982 15.9887 17.7392 15.9887 17.4316V14.7604C15.9887 12.5252 14.1815 10.7132 11.9521 10.7132C9.72276 10.7132 7.91551 12.5252 7.91551 14.7604V17.4316C7.91551 17.7311 7.01131 17.982 5.89721 17.982C4.8154 17.9982 3.87891 17.7554 3.87891 17.4316Z" fill="#E3EDFF"/>
<path fill-rule="evenodd" clip-rule="evenodd" d="M3.87891 17.4316V14.7604C3.87891 10.29 7.4934 6.66602 11.9521 6.66602C14.0933 6.66602 16.1467 7.51882 17.6607 9.03682C19.1748 10.5548 20.0253 12.6137 20.0253 14.7604V17.4316C20.0253 17.7311 19.1211 17.982 18.007 17.982C16.8929 17.982 15.9887 17.7392 15.9887 17.4316V14.7604C15.9887 12.5252 14.1815 10.7132 11.9521 10.7132C9.72276 10.7132 7.91551 12.5252 7.91551 14.7604V17.4316C7.91551 17.7311 7.01131 17.982 5.89721 17.982C4.8154 17.9982 3.87891 17.7554 3.87891 17.4316Z" stroke="#163150" stroke-width="1.69158" stroke-linecap="round" stroke-linejoin="round"/>
<path opacity="0.4" d="M15.2281 25.6479C15.2418 26.5402 14.701 27.3471 13.8718 27.6715V30.9093C13.8718 31.2978 13.5812 30.796 13.2179 30.796C12.8546 30.796 12.5639 31.2978 12.5639 30.9093V27.6715C11.7288 27.3487 11.1837 26.5371 11.1996 25.6398C11.1996 24.5222 12.1032 23.6162 13.2179 23.6162C14.3325 23.6162 15.2362 24.5222 15.2362 25.6398L15.2281 25.6479Z" fill="white"/>
<path d="M14.115 25.5255C14.1144 26.3868 13.5702 27.1533 12.7587 27.4358V30.4388C12.7587 30.8009 12.466 31.0945 12.1048 31.0945C11.7436 31.0945 11.4509 30.8009 11.4509 30.4388V27.4439C10.4751 27.1134 9.90405 26.0994 10.1257 25.0911C10.3474 24.0827 11.2908 23.4034 12.3147 23.5149C13.3385 23.6264 14.1144 24.4929 14.115 25.5255Z" fill="#163150"/>
</svg>
