<svg viewBox="0 0 17 21" fill="none" xmlns="http://www.w3.org/2000/svg">
<circle cx="8.5952" cy="5.74754" r="4.65575" stroke="white" stroke-width="2" stroke-linecap="round" stroke-linejoin="round"/>
<path fill-rule="evenodd" clip-rule="evenodd" d="M1.21095 16.1478C1.2097 15.8205 1.2829 15.4972 1.42501 15.2024C1.87096 14.3105 3.12855 13.8378 4.17208 13.6237C4.92467 13.4631 5.68766 13.3558 6.45536 13.3026C7.8767 13.1778 9.30625 13.1778 10.7276 13.3026C11.4952 13.3564 12.2582 13.4637 13.0109 13.6237C14.0544 13.8378 15.312 14.2659 15.7579 15.2024C16.0437 15.8034 16.0437 16.5011 15.7579 17.1021C15.312 18.0386 14.0544 18.4668 13.0109 18.6719C12.2592 18.8392 11.4959 18.9495 10.7276 19.0019C9.57073 19.1 8.40848 19.1179 7.24916 19.0554C6.98158 19.0554 6.72293 19.0554 6.45536 19.0019C5.68993 18.9501 4.92959 18.8398 4.181 18.6719C3.12855 18.4668 1.87988 18.0386 1.42501 17.1021C1.28363 16.8039 1.2105 16.4779 1.21095 16.1478Z" stroke="white" stroke-width="2" stroke-linecap="round" stroke-linejoin="round"/>
</svg>
