<svg xmlns="http://www.w3.org/2000/svg" fill="none" viewBox="0 0 276 145"><rect width="100%" height="100%"/><mask id="a" maskUnits="userSpaceOnUse" x="7" y="0" width="61" height="60"><path fill-rule="evenodd" clip-rule="evenodd" d="M7 0h60.61v59.0792H7V0z" fill="#fff"/></mask><g class="currentLayer"><path d="M122.366 99.896L119.742 108h-1.128c-.138 0-.234-.091-.288-.272l-1.792-5.496a3.3796 3.3796 0 01-.104-.368c-.026-.128-.053-.253-.08-.376-.026.123-.053.248-.08.376-.026.123-.061.248-.104.376l-1.824 5.488c-.048.181-.154.272-.32.272h-1.072l-2.624-8.104h1.12c.112 0 .206.0293.28.088.08.059.134.128.16.208l1.552 5.216c.091.384.163.747.216 1.088.048-.176.096-.355.144-.536.054-.181.11-.365.168-.552l1.712-5.248c.027-.08.072-.147.136-.2.07-.0533.152-.08.248-.08h.624c.107 0 .195.0267.264.08.07.053.118.12.144.2l1.672 5.248c.059.187.112.371.16.552.048.181.094.36.136.536.027-.176.059-.352.096-.528.043-.181.088-.368.136-.56l1.584-5.216a.4.4 0 01.152-.208c.075-.0587.163-.088.264-.088h1.072zm12.563 0L132.305 108h-1.128c-.139 0-.235-.091-.288-.272l-1.792-5.496a3.1687 3.1687 0 01-.104-.368c-.027-.128-.053-.253-.08-.376-.027.123-.053.248-.08.376-.027.123-.061.248-.104.376l-1.824 5.488c-.048.181-.155.272-.32.272h-1.072l-2.624-8.104h1.12c.112 0 .205.0293.28.088.08.059.133.128.16.208l1.552 5.216c.091.384.163.747.216 1.088.048-.176.096-.355.144-.536.053-.181.109-.365.168-.552l1.712-5.248c.027-.08.072-.147.136-.2.069-.0533.152-.08.248-.08h.624c.107 0 .195.0267.264.08.069.053.117.12.144.2l1.672 5.248c.059.187.112.371.16.552.048.181.093.36.136.536.027-.176.059-.352.096-.528.043-.181.088-.368.136-.56l1.584-5.216a.3946.3946 0 01.152-.208c.075-.0587.163-.088.264-.088h1.072zm12.562 0L144.867 108h-1.128c-.138 0-.234-.091-.288-.272l-1.792-5.496a3.3796 3.3796 0 01-.104-.368c-.026-.128-.053-.253-.08-.376-.026.123-.053.248-.08.376-.026.123-.061.248-.104.376l-1.824 5.488c-.048.181-.154.272-.32.272h-1.072l-2.624-8.104h1.12c.112 0 .206.0293.28.088.08.059.134.128.16.208l1.552 5.216c.091.384.163.747.216 1.088.048-.176.096-.355.144-.536.054-.181.11-.365.168-.552l1.712-5.248c.027-.08.072-.147.136-.2.07-.0533.152-.08.248-.08h.624c.107 0 .195.0267.264.08.07.053.118.12.144.2l1.672 5.248c.059.187.112.371.16.552.048.181.094.36.136.536.027-.176.059-.352.096-.528.043-.181.088-.368.136-.56l1.584-5.216a.4.4 0 01.152-.208c.075-.0587.163-.088.264-.088h1.072zm.803 7.224c0-.139.024-.269.072-.392.054-.123.123-.229.208-.32.091-.091.198-.163.32-.216.123-.053.254-.08.392-.08.139 0 .27.027.392.08.123.053.23.125.32.216.091.091.163.197.216.32.054.123.08.253.08.392 0 .144-.026.277-.08.4-.053.117-.125.221-.216.312-.09.091-.197.16-.32.208a.9746.9746 0 01-.392.08.9816.9816 0 01-.392-.08.927.927 0 01-.32-.208 1.1729 1.1729 0 01-.208-.312c-.048-.123-.072-.256-.072-.4zm16.285-10.584V108h-1.36v-8.424c0-.112.003-.232.008-.36.011-.128.022-.2587.032-.392l-3.936 7.168c-.122.24-.309.36-.56.36h-.224c-.25 0-.437-.12-.56-.36l-4.016-7.2c.032.2827.048.544.048.784V108h-1.36V96.536h1.144c.139 0 .246.0133.32.04.075.0267.147.1013.216.224l3.96 7.056c.064.128.126.261.184.4.064.139.123.28.176.424.054-.144.11-.285.168-.424.059-.144.123-.28.192-.408L162.9 96.8c.063-.1227.133-.1973.208-.224.08-.0267.189-.04.327-.04h1.144zm9.4 3.36l-4.52 10.496c-.048.107-.109.192-.184.256-.069.064-.178.096-.328.096h-1.056l1.48-3.216-3.344-7.632h1.232c.123 0 .219.032.288.096.075.059.126.125.152.2l2.168 5.104c.086.224.158.459.216.704.075-.251.155-.488.24-.712l2.104-5.096a.4446.4446 0 01.16-.208c.08-.0587.168-.088.264-.088h1.128zm9.611 5.736c.085 0 .16.035.224.104l.616.664c-.469.544-1.04.968-1.712 1.272-.667.304-1.475.456-2.424.456-.821 0-1.568-.141-2.24-.424-.672-.288-1.245-.688-1.72-1.2-.475-.517-.843-1.136-1.104-1.856-.261-.72-.392-1.512-.392-2.376 0-.864.136-1.656.408-2.376.272-.72.653-1.3387 1.144-1.856.496-.5173 1.088-.9173 1.776-1.2.688-.288 1.448-.432 2.28-.432.816 0 1.536.1307 2.16.392.624.2613 1.173.616 1.648 1.064l-.512.712a.4477.4477 0 01-.128.136c-.048.032-.115.048-.2.048-.096 0-.213-.0507-.352-.152-.139-.1067-.32-.224-.544-.352-.224-.128-.504-.2427-.84-.344-.336-.1067-.749-.16-1.24-.16-.592 0-1.133.104-1.624.312-.491.2027-.915.4987-1.272.888-.352.3893-.627.864-.824 1.424-.197.56-.296 1.192-.296 1.896 0 .715.101 1.352.304 1.912.208.56.488 1.035.84 1.424.357.384.776.677 1.256.88.485.203 1.008.304 1.568.304.341 0 .648-.019.92-.056.277-.043.531-.107.76-.192.235-.085.451-.192.648-.32.203-.133.403-.291.6-.472.091-.08.181-.12.272-.12zm3.609-4.112c.256-.555.57-.987.944-1.296.373-.3147.829-.472 1.368-.472.17 0 .333.0187.488.056.16.0373.301.096.424.176l-.104 1.064c-.032.133-.112.2-.24.2-.075 0-.184-.016-.328-.048-.144-.032-.307-.048-.488-.048-.256 0-.486.037-.688.112-.198.075-.376.187-.536.336-.155.144-.296.325-.424.544-.123.213-.235.459-.336.736V108h-1.432v-8.104h.816c.154 0 .261.0293.32.088.058.059.098.16.12.304l.096 1.232zm11.468-1.624l-4.52 10.496c-.048.107-.109.192-.184.256-.069.064-.179.096-.328.096h-1.056l1.48-3.216-3.344-7.632h1.232c.123 0 .219.032.288.096.075.059.125.125.152.2l2.168 5.104c.085.224.157.459.216.704.075-.251.155-.488.24-.712l2.104-5.096a.4384.4384 0 01.16-.208c.08-.0587.168-.088.264-.088h1.128zm2.69 6.152c.261.352.547.6.856.744.309.144.656.216 1.04.216.757 0 1.339-.269 1.744-.808s.608-1.307.608-2.304c0-.528-.048-.981-.144-1.36-.091-.379-.224-.688-.4-.928-.176-.245-.392-.424-.648-.536-.256-.112-.547-.168-.872-.168-.464 0-.872.107-1.224.32-.347.213-.667.515-.96.904v3.92zm-.072-4.896c.341-.421.736-.76 1.184-1.016.448-.256.96-.384 1.536-.384.469 0 .893.0907 1.272.272.379.176.701.44.968.792.267.347.472.779.616 1.296.144.517.216 1.112.216 1.784 0 .597-.08 1.155-.24 1.672-.16.512-.392.957-.696 1.336-.299.373-.667.669-1.104.888-.432.213-.92.32-1.464.32-.496 0-.923-.083-1.28-.248-.352-.171-.664-.405-.936-.704v3.584h-1.432V99.896h.856c.203 0 .328.0987.376.296l.128.96zm9.987 6.976c-.64 0-1.133-.179-1.48-.536-.341-.357-.512-.872-.512-1.544v-4.96h-.976c-.085 0-.157-.024-.216-.072-.058-.053-.088-.133-.088-.24v-.568l1.328-.168.328-2.504c.016-.08.051-.144.104-.192.059-.0533.134-.08.224-.08h.72v2.792h2.344v1.032h-2.344v4.864c0 .341.083.595.248.76.166.165.379.248.64.248.15 0 .278-.019.384-.056.112-.043.208-.088.288-.136.08-.048.147-.091.2-.128.059-.043.11-.064.152-.064.075 0 .142.045.2.136l.416.68c-.245.229-.541.411-.888.544-.346.128-.704.192-1.072.192zm6.616-8.36c.592 0 1.125.0987 1.6.296.474.197.88.477 1.216.84.336.363.592.803.768 1.32.181.512.272 1.085.272 1.72 0 .64-.091 1.216-.272 1.728-.176.512-.432.949-.768 1.312-.336.363-.742.643-1.216.84-.475.192-1.008.288-1.6.288-.598 0-1.136-.096-1.616-.288-.475-.197-.88-.477-1.216-.84-.336-.363-.595-.8-.776-1.312-.176-.512-.264-1.088-.264-1.728 0-.635.088-1.208.264-1.72.181-.517.44-.957.776-1.32.336-.363.741-.643 1.216-.84.48-.1973 1.018-.296 1.616-.296zm0 7.232c.8 0 1.397-.267 1.792-.8.394-.539.592-1.288.592-2.248 0-.965-.198-1.717-.592-2.256-.395-.539-.992-.808-1.792-.808-.406 0-.76.069-1.064.208-.299.139-.55.339-.752.6-.198.261-.347.584-.448.968-.096.379-.144.808-.144 1.288 0 .96.197 1.709.592 2.248.4.533 1.005.8 1.816.8zm5.422.12c0-.139.024-.269.072-.392.053-.123.123-.229.208-.32.091-.091.197-.163.32-.216a.978.978 0 01.392-.08c.139 0 .269.027.392.08.123.053.229.125.32.216s.163.197.216.32c.053.123.08.253.08.392 0 .144-.027.277-.08.4-.053.117-.125.221-.216.312a.9177.9177 0 01-.32.208.978.978 0 01-.392.08.978.978 0 01-.392-.08.9177.9177 0 01-.32-.208 1.1495 1.1495 0 01-.208-.312c-.048-.123-.072-.256-.072-.4zm9.661-5.784c-.043.059-.085.104-.128.136-.043.032-.101.048-.176.048-.08 0-.168-.032-.264-.096-.096-.069-.216-.144-.36-.224-.139-.08-.312-.152-.52-.216-.203-.069-.453-.104-.752-.104-.4 0-.752.072-1.056.216-.304.139-.56.341-.768.608-.203.267-.357.589-.464.968-.101.379-.152.803-.152 1.272 0 .491.056.928.168 1.312.112.379.269.699.472.96.208.256.456.453.744.592.293.133.621.2.984.2.347 0 .632-.04.856-.12.224-.085.408-.179.552-.28.149-.101.272-.192.368-.272.101-.085.2-.128.296-.128.117 0 .208.045.272.136l.4.52c-.176.219-.376.405-.6.56-.224.155-.467.285-.728.392a4.031 4.031 0 01-.808.224c-.283.048-.571.072-.864.072-.507 0-.979-.093-1.416-.28-.432-.187-.808-.456-1.128-.808-.32-.357-.571-.795-.752-1.312-.181-.517-.272-1.107-.272-1.768 0-.603.083-1.16.248-1.672.171-.512.416-.952.736-1.32.325-.373.723-.664 1.192-.872.475-.208 1.019-.312 1.632-.312.571 0 1.072.0934 1.504.28.437.181.824.44 1.16.776l-.376.512zm5.276-1.568c.592 0 1.125.0987 1.6.296.475.197.88.477 1.216.84.336.363.592.803.768 1.32.181.512.272 1.085.272 1.72 0 .64-.091 1.216-.272 1.728-.176.512-.432.949-.768 1.312-.336.363-.741.643-1.216.84-.475.192-1.008.288-1.6.288-.597 0-1.136-.096-1.616-.288-.475-.197-.88-.477-1.216-.84-.336-.363-.595-.8-.776-1.312-.176-.512-.264-1.088-.264-1.728 0-.635.088-1.208.264-1.72.181-.517.44-.957.776-1.32.336-.363.741-.643 1.216-.84.48-.1973 1.019-.296 1.616-.296zm0 7.232c.8 0 1.397-.267 1.792-.8.395-.539.592-1.288.592-2.248 0-.965-.197-1.717-.592-2.256-.395-.539-.992-.808-1.792-.808-.405 0-.76.069-1.064.208-.299.139-.549.339-.752.6-.197.261-.347.584-.448.968-.096.379-.144.808-.144 1.288 0 .96.197 1.709.592 2.248.4.533 1.005.8 1.816.8zm5.662 1v-8.104h.856c.203 0 .328.0987.376.296l.104.832c.299-.368.635-.669 1.008-.904.374-.2346.806-.352 1.296-.352.544 0 .984.152 1.32.456.342.304.587.715.736 1.232.118-.293.267-.547.448-.76.187-.213.395-.389.624-.528.23-.139.472-.24.728-.304.262-.064.526-.096.792-.096.427 0 .806.0694 1.136.208.336.133.619.331.848.592.235.261.414.584.536.968.123.379.184.813.184 1.304V108h-1.432v-5.16c0-.635-.138-1.115-.416-1.44-.277-.331-.677-.496-1.2-.496-.234 0-.458.043-.672.128-.208.08-.392.2-.552.36-.16.16-.288.363-.384.608-.09.24-.136.52-.136.84V108h-1.432v-5.16c0-.651-.13-1.136-.392-1.456-.261-.32-.642-.48-1.144-.48-.352 0-.677.096-.976.288-.298.187-.573.443-.824.768V108h-1.432z" fill="#55B6E2"/><path d="M82.9999 105l-3-3 3-3-3-3.0001 3-3 3.0001 3 3-3 3 3L89 99l3 3-3 3-3-3-3.0001 3z" fill="#FFD167"/><path d="M98.3434 125.354l-4.33-7.881L72 128.185l5.603 10.132 20.7404-12.963zm2.1826 19.554l-6.3047-5.95 13.2587-12.617 4.901 4.624-11.855 13.943z" fill="#007A99"/><g mask="url(#a)" fill-rule="evenodd" clip-rule="evenodd"><path d="M37.0698 4.7664c-13.926 0-25.2155 11.0184-25.2155 24.6103 0 13.592 11.2894 24.6105 25.2155 24.6105 13.9261 0 25.2157-11.0185 25.2157-24.6105 0-13.5919-11.2896-24.6103-25.2157-24.6103z" fill="#fff"/><path d="M56.2745 26.7257c-1.0354 1.0224-2.6988 1.0394-3.7153.0376l-3.768-3.7135c-1.6339-1.6104-4.308-1.5833-5.9725.0604l-3.838 3.7907a2.6868 2.6868 0 01-2.1767.7607c-.5885-.0479-1.1602-.291-1.607-.7312l-3.7682-3.7137c-1.634-1.6104-4.308-1.5834-5.9723.0607l-3.8383 3.7906c-1.0354 1.0225-2.6989 1.0394-3.7153.0376-1.634-1.6103-1.6095-4.2485.055-5.8923l7.5878-7.4936c1.6645-1.6437 4.3384-1.671 5.9726-.0607l5.6468 5.5652 5.7431-5.6716c1.6645-1.6438 4.3383-1.6711 5.9723-.0605l7.4492 7.3412c1.634 1.6104 1.6093 4.2486-.0552 5.8924zM48.075 39.0375l-7.7964 7.6998c-1.7102 1.689-4.4846 1.6904-6.1965.0032l-7.8045-7.6917a4.2818 4.2818 0 01-.0033-6.1133c1.064-1.0507 2.7896-1.0514 3.8547-.002l3.9478 3.8907c1.7121 1.6876 4.4863 1.6861 6.1965-.0029l3.944-3.8949c1.0635-1.0507 2.7895-1.0517 3.8544-.0022a4.282 4.282 0 01.0033 6.1133zM37.1162-.1558c-16.7369 0-30.3049 13.225-30.3049 29.5386 0 16.3139 13.568 29.5388 30.305 29.5388 16.7367 0 30.305-13.2249 30.305-29.5388 0-16.3136-13.5683-29.5386-30.305-29.5386z" fill="#007A99"/></g><path fill-rule="evenodd" clip-rule="evenodd" d="M108.763 20.039l-8.398 10.5379a.2697.2697 0 01-.21.1003h-1.0262a.2695.2695 0 01-.2098-.0995L90.5199 20.126c-.156-.1942-.476-.0865-.476.1603v19.6028c0 .1435-.119.2595-.2663.2595h-3.4203c-.1472 0-.2667-.1165-.2665-.26l.0469-27.3385c.0003-.1433.1195-.2591.2663-.2591h2.4618a.2689.2689 0 01.2103.1001l10.379 13.0076c.1069.1339.3144.1337.4208-.0005l10.3321-13.0067a.2678.2678 0 01.21-.1005h2.462c.147 0 .266.116.266.2596v27.3385c0 .1435-.119.2595-.266.2595h-3.374c-.147 0-.266-.116-.266-.2595V20.1983c0-.2473-.321-.3545-.477-.1593zM124.527 47.3918h-3.471c-.19 0-.316-.1922-.236-.3606l3.732-7.891a.2487.2487 0 00.001-.2116l-8.357-17.9209c-.078-.1684.048-.3594.238-.3594h3.707c.105 0 .201.0622.241.1576l5.697 13.5392c.254.5572.381 1.006.381 1.3464h.191c0-.3384.094-.7838.282-1.3363a.1628.1628 0 01.008-.0197l5.693-13.5296a.26.26 0 01.241-.1576h3.428c.188 0 .314.188.238.3559l-11.775 26.2354c-.041.0925-.135.1522-.239.1522zM163.762 37.092a.2522.2522 0 01-.025.3355l-.22.2141c-.158.1546-.532.4412-1.119.8588-.587.4178-1.215.7816-1.881 1.0913-.667.3095-1.557.5882-2.668.8357-1.111.2475-2.27.3714-3.477.3714-4.223 0-7.669-1.3929-10.336-4.1787-2.668-2.7857-4.001-6.2368-4.001-10.3538 0-4.1477 1.326-7.6145 3.977-10.4003 2.652-2.7857 6.105-4.1786 10.36-4.1786 1.905 0 3.652.2939 5.24.8821 1.587.5882 2.699 1.1764 3.334 1.7643l.783.7248c.097.0897.109.236.029.3402l-1.95 2.5345c-.097.1256-.283.136-.398.0263a4.0203 4.0203 0 00-.107-.097c-.143-.1239-.453-.3483-.929-.6733a14.1973 14.1973 0 00-1.477-.8821c-.508-.2632-1.167-.4955-1.977-.6966-.809-.201-1.643-.3018-2.5-.3018-3.017 0-5.494 1.0525-7.431 3.1574-1.937 2.1047-2.906 4.7046-2.906 7.8001 0 3.0642.969 5.649 2.906 7.7536 1.937 2.105 4.414 3.1574 7.431 3.1574 1.333 0 2.604-.2399 3.81-.7196 1.201-.4774 2.071-.9468 2.611-1.4086.006-.0052.012-.0104.017-.0158l.54-.5255c.113-.1103.3-.0973.396.0276l1.968 2.5566zM178.153 23.4552c0 .1423-.118.2575-.264.2575h-1.85c-1.429 0-2.644.5029-3.644 1.5089-1.001 1.0061-1.501 2.2674-1.501 3.7842v10.8855c0 .1423-.118.2575-.264.2575h-3.377c-.146 0-.265-.1152-.265-.2575V20.9058c0-.1423.119-.2575.265-.2575h2.417c.143 0 .26.1101.264.2489l.103 3.0476h.238c.476-1.0525 1.223-1.8727 2.239-2.4609 1.016-.5879 2.191-.8818 3.525-.8818h1.85c.146 0 .264.115.264.2573v2.5958zM188.495 47.3918h-3.466c-.192 0-.319-.1937-.239-.3635l3.731-7.8871a.2492.2492 0 000-.2134l-8.355-17.9172c-.079-.1696.048-.3623.24-.3623h3.702c.107 0 .203.0627.243.159l5.697 13.5378c.254.5572.607 1.006.607 1.3464h-.261c0-.3404.321-.7892.512-1.3464l5.696-13.5378a.2637.2637 0 01.243-.159h3.423c.19 0 .317.1895.241.3589l-11.773 26.231a.2639.2639 0 01-.241.1536zM207.94 35.529c1.284 1.3668 2.892 2.0066 4.823 1.9191 1.345-.0609 2.64-.5879 3.609-1.4993 1.461-1.3725 2.191-3.2225 2.191-5.5504 0-2.0427-.58-3.7296-1.739-5.0608-1.159-1.3309-2.628-1.9963-4.406-1.9963-1.778 0-3.271.6423-4.478 1.9268-1.206 1.2845-1.809 2.9947-1.809 5.1303 0 2.1359.603 3.8461 1.809 5.1306zm-1.571 2.159v9.4486c0 .1408-.117.2551-.262.2551h-3.382c-.145 0-.262-.1143-.262-.2551v-26.233c0-.1411.117-.2553.262-.2553h2.598c.143 0 .26.113.261.2531l.023 2.5791h.193c.087 0 .169-.0426.218-.1136l.16-.2347c.095-.1391.349-.4024.762-.7892.413-.3869.874-.7276 1.382-1.0215.508-.294 1.198-.5572 2.072-.7893.873-.232 1.802-.3482 2.786-.3482 2.668 0 4.89.9362 6.669 2.8091 1.778 1.8726 2.667 4.3411 2.667 7.4053 0 3.0026-.881 5.4558-2.644 7.3592-1.762 1.9036-3.945 2.8555-6.549 2.8555-.984 0-1.897-.1005-2.739-.3018-.841-.2013-1.5-.4488-1.977-.7428-.476-.2942-.881-.5805-1.214-.859-.327-.2731-.555-.5016-.683-.6855-.006-.0076-.01-.015-.015-.0231l-.183-.3129h-.143zM227.179 20.3892v-5.4251c0-.143.119-.2588.266-.2588h3.374c.147 0 .266.1158.266.2588v5.4251c0 .143.119.259.266.259h5.184c.147 0 .266.1158.266.2588v2.5002c0 .1431-.119.2591-.266.2591h-5.184c-.147 0-.266.1157-.266.2588v10.5128c0 1.9501.921 2.9252 2.762 2.9252.413 0 .85-.0698 1.311-.2092.46-.1391.817-.2863 1.071-.4409l.13-.0632c.136-.0666.302-.0076.362.129l1.003 2.2659c.047.1072.017.234-.078.3048-.131.0974-.31.2092-.536.335-.284.1581-.712.3274-1.283.5081-.933.2944-1.913.4449-2.892.4154-1.893-.0573-3.311-.5971-4.256-1.62-1-1.0832-1.5-2.5847-1.5-4.5036V23.9251c0-.1431-.119-.2588-.266-.2588h-3.136c-.147 0-.266-.116-.266-.2591V20.907c0-.143.119-.2588.266-.2588h3.136c.147 0 .266-.116.266-.259zM253.44 35.6218c1.207-1.2845 1.81-3.0102 1.81-5.1768 0-2.1359-.603-3.8692-1.81-5.2002-1.206-1.3311-2.699-1.9965-4.477-1.9965-1.779 0-3.279.6577-4.502 1.9732-1.222 1.3155-1.833 3.0566-1.833 5.2235 0 2.1666.603 3.8923 1.81 5.1768 1.206 1.2845 2.715 1.927 4.525 1.927 1.778 0 3.271-.6425 4.477-1.927zm2.763 2.2055c-1.969 1.8571-4.382 2.7857-7.24 2.7857-2.89 0-5.303-.9286-7.24-2.7857-1.938-1.8572-2.906-4.3026-2.906-7.3361 0-3.0642.976-5.5482 2.929-7.4518 1.953-1.9036 4.359-2.8556 7.217-2.8556 2.858 0 5.271.9596 7.24 2.8787 1.969 1.9191 2.953 4.3954 2.953 7.4287 0 3.0335-.984 5.4789-2.953 7.3361z" fill="#007A99"/><path d="M146.25 63.2258c.559 0 1.049-.074 1.473-.2219.43-.1479.79-.353 1.079-.6153a2.567 2.567 0 00.666-.9582c.148-.3698.222-.7766.222-1.2204 0-.9212-.286-1.6407-.857-2.1584-.565-.5178-1.426-.7767-2.583-.7767h-2.319v5.9509h2.319zm0-7.4941c.915 0 1.708.1076 2.381.3228.679.2084 1.24.5077 1.684.8977.444.39.773.8606.989 1.412.222.5514.332 1.1667.332 1.8458 0 .6724-.117 1.2877-.353 1.8458-.235.5581-.581 1.0389-1.038 1.4423-.451.4035-1.012.7195-1.685.9481-.665.2219-1.435.3329-2.31.3329h-2.319v5.4062h-1.947V55.7317h4.266zm12.648 9.8543c-.827.0269-1.533.0941-2.118.2017-.579.1009-1.053.2353-1.422.4035-.364.1681-.629.3664-.797.595-.162.2287-.242.4842-.242.7666 0 .269.043.5009.131.6959.087.195.205.3564.353.4842.154.121.333.2118.534.2723.209.0538.431.0807.666.0807.316 0 .605-.0303.867-.0908.263-.0672.508-.1614.737-.2824.235-.121.457-.2656.665-.4337.216-.1681.424-.3597.626-.5749V65.586zm-5.8-4.1757c.565-.5447 1.174-.9515 1.826-1.2205.652-.2689 1.375-.4034 2.168-.4034.572 0 1.08.0941 1.523.2824.444.1883.817.4505 1.12.7867.303.3362.531.743.686 1.2205.154.4774.232 1.0019.232 1.5734v6.5359h-.797c-.175 0-.309-.0269-.403-.0807-.095-.0605-.169-.1748-.222-.3429l-.202-.9683c-.269.2488-.531.4707-.787.6657a4.8875 4.8875 0 01-.807.4841c-.282.1278-.585.2253-.907.2925-.316.074-.67.111-1.06.111-.396 0-.769-.0538-1.119-.1614-.35-.1143-.656-.2824-.918-.5043-.255-.2219-.461-.501-.615-.8372-.148-.3429-.222-.7463-.222-1.2103 0-.4035.111-.7901.333-1.1599.222-.3766.581-.7094 1.079-.9986.498-.2891 1.146-.5245 1.947-.706.8-.1883 1.782-.2959 2.945-.3228v-.7968c0-.7934-.172-1.3919-.515-1.7953-.343-.4102-.843-.6153-1.502-.6153-.444 0-.817.0572-1.12.1715-.296.1076-.555.232-.777.3732a11.578 11.578 0 00-.564.3732c-.155.1075-.31.1613-.464.1613-.121 0-.226-.0302-.313-.0907a.9354.9354 0 01-.222-.2421l-.323-.5749zm12.095 6.314c.33.4438.689.7564 1.079.938.39.1815.827.2723 1.311.2723.955 0 1.688-.3396 2.199-1.0187.511-.6791.767-1.6474.767-2.9048 0-.6657-.061-1.2373-.182-1.7147-.114-.4774-.282-.8674-.504-1.17-.222-.3093-.494-.5346-.817-.6758-.323-.1412-.689-.2118-1.099-.2118-.585 0-1.1.1345-1.544.4035-.437.2689-.84.6488-1.21 1.1397v4.9423zm-.091-6.1728c.431-.5312.928-.9582 1.493-1.281.565-.3227 1.21-.4841 1.937-.4841.591 0 1.126.1143 1.603.3429.478.2219.885.5548 1.221.9986.336.437.595.9817.776 1.6339.182.6523.273 1.402.273 2.2493 0 .7531-.101 1.4557-.303 2.108-.202.6455-.494 1.207-.877 1.6844-.377.4707-.841.8439-1.392 1.1196-.545.2689-1.16.4034-1.846.4034-.625 0-1.163-.1042-1.614-.3127-.444-.2151-.837-.511-1.18-.8876v4.5187h-1.805v-13.677h1.079c.255 0 .413.1244.474.3732l.161 1.2104zm16.432 2.4106c0-.4169-.061-.7968-.182-1.1398-.114-.3496-.286-.6488-.514-.8976-.222-.2555-.494-.4505-.817-.585-.323-.1412-.689-.2118-1.1-.2118-.86 0-1.543.2521-2.047.7564-.498.4976-.807 1.1902-.928 2.0778h5.588zm1.452 4.791c-.222.2689-.487.5043-.797.706a5.074 5.074 0 01-.998.4841c-.35.1278-.713.2219-1.09.2824a6.3406 6.3406 0 01-1.119.1009c-.706 0-1.358-.1177-1.957-.353-.592-.2421-1.106-.5917-1.543-1.049-.43-.4639-.767-1.0355-1.009-1.7146-.242-.6792-.363-1.4592-.363-2.34 0-.7128.108-1.3785.323-1.9971.222-.6186.538-1.1532.948-1.6037.41-.4573.911-.8137 1.503-1.0692.592-.2622 1.257-.3933 1.997-.3933.612 0 1.177.1042 1.694.3126.525.2018.976.4976 1.352.8876.383.3833.683.8607.898 1.4323.215.5648.322 1.2103.322 1.9365 0 .2824-.03.4707-.09.5649-.061.0941-.175.1412-.343.1412h-6.829c.021.6455.108 1.207.263 1.6844.161.4774.383.8775.665 1.2002.283.3161.619.5548 1.009.7162.39.1546.827.2319 1.311.2319.451 0 .837-.0504 1.16-.1513.33-.1075.612-.2219.847-.3429.236-.121.431-.232.585-.3328.162-.1076.3-.1614.414-.1614.148 0 .262.0571.343.1715l.504.6556zm4.071-6.7377c.323-.6993.72-1.2439 1.191-1.6339.47-.3967 1.045-.5951 1.724-.5951.215 0 .421.0235.616.0706.201.0471.379.121.534.2219l-.131 1.3415c-.04.1681-.141.2521-.303.2521-.094 0-.232-.0202-.413-.0605-.182-.0403-.387-.0605-.615-.0605-.323 0-.612.047-.868.1412-.249.0941-.474.2353-.676.4236-.195.1816-.373.4102-.534.6859-.155.2689-.296.5783-.424.9279v6.4552h-1.805V59.9679h1.029c.195 0 .329.037.403.111.074.074.124.2017.151.3833l.121 1.5532zm29.25-6.2837l-4.509 14.4536h-1.755l-3.661-11.0243a11.1592 11.1592 0 01-.101-.3429c-.027-.121-.057-.2488-.091-.3833-.033.1345-.067.2623-.101.3833-.033.121-.067.2354-.101.3429l-3.681 11.0243h-1.755l-4.509-14.4536h1.624c.175 0 .32.0437.434.1311.121.0875.198.1984.232.3329l2.985 10.0459c.048.1815.091.3765.132.585.047.2084.09.4303.131.6657.047-.2354.094-.4573.141-.6657.054-.2152.111-.4102.171-.585l3.399-10.0459c.041-.1143.118-.2185.232-.3127.121-.1009.266-.1513.434-.1513h.565c.175 0 .316.0437.424.1311.107.0875.188.1984.242.3329l3.389 10.0459c.06.1748.114.3631.161.5648.054.2017.104.4135.151.6354.034-.2219.071-.4337.111-.6354.041-.2017.084-.39.131-.5648l2.996-10.0459c.034-.121.108-.2286.222-.3228.121-.0941.266-.1412.434-.1412h1.523zm6.122 9.8543c-.827.0269-1.533.0941-2.118.2017-.578.1009-1.052.2353-1.422.4035-.363.1681-.629.3664-.797.595-.161.2287-.242.4842-.242.7666 0 .269.044.5009.131.6959.088.195.205.3564.353.4842.155.121.333.2118.535.2723.208.0538.43.0807.666.0807.316 0 .605-.0303.867-.0908.262-.0672.508-.1614.736-.2824a3.856 3.856 0 00.666-.4337c.215-.1681.424-.3597.625-.5749V65.586zm-5.799-4.1757c.565-.5447 1.173-.9515 1.825-1.2205.653-.2689 1.375-.4034 2.169-.4034.571 0 1.079.0941 1.523.2824.444.1883.817.4505 1.119.7867.303.3362.532.743.686 1.2205.155.4774.232 1.0019.232 1.5734v6.5359h-.797c-.174 0-.309-.0269-.403-.0807-.094-.0605-.168-.1748-.222-.3429l-.202-.9683c-.269.2488-.531.4707-.786.6657a4.9715 4.9715 0 01-.807.4841c-.283.1278-.585.2253-.908.2925-.316.074-.669.111-1.059.111-.397 0-.77-.0538-1.12-.1614-.349-.1143-.655-.2824-.917-.5043-.256-.2219-.461-.501-.616-.8372-.148-.3429-.222-.7463-.222-1.2103 0-.4035.111-.7901.333-1.1599.222-.3766.582-.7094 1.079-.9986.498-.2891 1.147-.5245 1.947-.706.8-.1883 1.782-.2959 2.945-.3228v-.7968c0-.7934-.171-1.3919-.514-1.7953-.343-.4102-.844-.6153-1.503-.6153-.444 0-.817.0572-1.12.1715-.295.1076-.554.232-.776.3732-.215.1344-.404.2588-.565.3732-.155.1075-.309.1613-.464.1613-.121 0-.225-.0302-.313-.0907a.9718.9718 0 01-.222-.2421l-.322-.5749zm12.145-6.082v14.857h-1.795v-14.857h1.795zm4.767 0v14.857h-1.795v-14.857h1.795zm9.75 8.6338c0-.4169-.06-.7968-.181-1.1398-.115-.3496-.286-.6488-.515-.8976-.222-.2555-.494-.4505-.817-.585-.322-.1412-.689-.2118-1.099-.2118-.861 0-1.543.2521-2.048.7564-.497.4976-.807 1.1902-.928 2.0778h5.588zm1.453 4.791c-.222.2689-.488.5043-.797.706-.309.195-.642.3564-.999.4841a5.8587 5.8587 0 01-1.089.2824c-.377.0673-.75.1009-1.12.1009-.706 0-1.358-.1177-1.956-.353-.592-.2421-1.106-.5917-1.544-1.049-.43-.4639-.766-1.0355-1.008-1.7146-.242-.6792-.363-1.4592-.363-2.34 0-.7128.107-1.3785.323-1.9971.221-.6186.537-1.1532.948-1.6037.41-.4573.911-.8137 1.502-1.0692.592-.2622 1.258-.3933 1.998-.3933.611 0 1.176.1042 1.694.3126.525.2018.975.4976 1.352.8876.383.3833.682.8607.897 1.4323.215.5648.323 1.2103.323 1.9365 0 .2824-.03.4707-.091.5649-.06.0941-.175.1412-.343.1412h-6.828c.02.6455.108 1.207.262 1.6844.162.4774.383.8775.666 1.2002.282.3161.618.5548 1.008.7162.39.1546.828.2319 1.312.2319.45 0 .837-.0504 1.16-.1513.329-.1075.612-.2219.847-.3429s.43-.232.585-.3328c.161-.1076.299-.1614.413-.1614.148 0 .263.0571.343.1715l.505.6556zm5.424 1.5936c-.807 0-1.429-.2253-1.866-.6758-.43-.4505-.645-1.0994-.645-1.9466v-6.2535h-1.231c-.107 0-.198-.0303-.272-.0908-.074-.0672-.111-.1681-.111-.3026v-.7161l1.674-.2118.414-3.157c.02-.1009.064-.1816.131-.2421.074-.0672.168-.1008.282-.1008h.908v3.5201h2.955v1.3011h-2.955v6.1324c0 .4304.104.7498.313.9582.208.2085.477.3127.807.3127.188 0 .349-.0235.484-.0706.141-.0538.262-.111.363-.1715.101-.0605.185-.1143.252-.1614.074-.0538.138-.0806.192-.0806.094 0 .178.0571.252.1714l.524.8573c-.309.2892-.682.5178-1.119.6859a3.8737 3.8737 0 01-1.352.2421z" fill="#424242"/><path fill="#C5ECF9" d="M258 88.3911h5.0809v5.0809H258z"/><path d="M267.773 78.8862l3.883-3.886 3.884 3.886-3.884 3.8861-3.883-3.8861z" fill="#C8B1FF"/></g></svg>
