<svg xmlns="http://www.w3.org/2000/svg" fill="none" viewBox="6 6 20 20">
  <path fill-rule="evenodd" clip-rule="evenodd"
        d="M15.1023 18.3422C15.0901 18.2164 14.9691 16.492 16.8489 15.0735C17.96 14.2358 17.4858 12.4163 15.9987 12.4163C15.1355 12.4163 14.4995 13.0384 14.4995 13.7945C14.4746 14.9752 12.6895 14.9728 12.6993 13.7945C12.6993 12.0411 14.1711 10.6992 15.9987 10.6992C17.8064 10.6992 19.2993 12.1101 19.2993 13.8722C19.2993 14.3947 19.1972 14.863 18.9726 15.2903C18.3533 16.4682 16.8971 16.7297 16.8971 18.3422C16.8971 19.384 15.1969 19.4652 15.1023 18.3422ZM15.998 19.7929C14.8408 19.7864 14.8368 21.4976 15.9926 21.4992C17.1402 21.5008 17.147 19.7993 15.998 19.7929Z"
        fill="#163150"/>
  <path fill-rule="evenodd" clip-rule="evenodd"
        d="M16 8C11.5817 8 8 11.5817 8 16C8 20.4183 11.5817 24 16 24C20.4183 24 24 20.4183 24 16C24 11.5817 20.4183 8 16 8ZM6 16C6 10.4772 10.4772 6 16 6C21.5228 6 26 10.4772 26 16C26 21.5228 21.5228 26 16 26C10.4772 26 6 21.5228 6 16Z"
        fill="#163150"/>
</svg>
