<svg xmlns="http://www.w3.org/2000/svg" width="16" height="15" fill="none"><rect id="backgroundrect" width="100%" height="100%" x="0" y="0" fill="none" stroke="none" class="" style=""/>

<g class="currentLayer" style=""><title>Layer 1</title><path fill-rule="evenodd" clip-rule="evenodd" d="M8.9369,0.39474000000000053 C8.7952,0.15047000000000033 8.5334,0 8.25,0 C7.9666,0 7.7048000000000005,0.15047000000000033 7.5631,0.39474000000000053 L0.1062599999999998,13.8158 C-0.03542000000000023,14.060099999999998 -0.03542000000000023,14.361 0.1062599999999998,14.6053 C0.24793999999999983,14.849499999999999 0.5097800000000001,15 0.7931400000000002,15 L15.706900000000001,15 C15.990200000000002,15 16.2521,14.849499999999999 16.3937,14.6053 C16.5354,14.361 16.5354,14.060099999999998 16.3937,13.8158 L8.9369,0.39474000000000053 zM14.333100000000002,13.4211 L2.1669,13.4211 L8.25,2.3684200000000004 L14.333100000000002,13.4211 zM7.4251000000000005,9.6 L7.4251000000000005,5.85 C7.431800000000001,4.8491599999999995 9.0617,4.85172 9.0751,5.85 L9.0751,9.6 C9.0817,10.5992 7.4117,10.6017 7.4251000000000005,9.6 zM7.4251000000000005,11.850000000000001 C7.4251000000000005,11.4358 7.7943999999999996,11.1 8.2501,11.1 C8.7057,11.1 9.0751,11.4358 9.0751,11.850000000000001 C9.0751,12.264199999999999 8.7057,12.600000000000001 8.2501,12.600000000000001 C7.7943999999999996,12.600000000000001 7.4251000000000005,12.264199999999999 7.4251000000000005,11.850000000000001 z" fill="#8F8F8F" id="svg_1" class=""/></g></svg>
