<svg width="12" height="12" viewBox="0 0 12 12" fill="none" xmlns="http://www.w3.org/2000/svg">
<path fill-rule="evenodd" clip-rule="evenodd" d="M2.40476 2.90476C2.40476 2.62862 2.62862 2.40476 2.90476 2.40476H11C11.2761 2.40476 11.5 2.62862 11.5 2.90476V11C11.5 11.2761 11.2761 11.5 11 11.5H2.90476C2.62862 11.5 2.40476 11.2761 2.40476 11V2.90476ZM3.40476 3.40476V10.5H10.5V3.40476H3.40476Z" fill="#1EB8E7"/>
<path fill-rule="evenodd" clip-rule="evenodd" d="M0.5 1C0.5 0.723858 0.723858 0.5 1 0.5H9.09524C9.37138 0.5 9.59524 0.723858 9.59524 1C9.59524 1.27614 9.37138 1.5 9.09524 1.5H1.5V9.09524C1.5 9.37138 1.27614 9.59524 1 9.59524C0.723858 9.59524 0.5 9.37138 0.5 9.09524V1Z" fill="#1EB8E7"/>
</svg>
