<svg viewBox="0 0 20 20" fill="none" xmlns="http://www.w3.org/2000/svg">
<g clip-path="url(#clip0)">
<path fill-rule="evenodd" clip-rule="evenodd" d="M1.56641 12.8109C1.57308 12.7882 1.59087 12.7723 1.59866 12.7496C1.61534 12.7043 1.64425 12.6646 1.66649 12.6203C1.71431 12.5273 1.76435 12.4378 1.83329 12.364C1.83997 12.3561 1.84219 12.3448 1.84997 12.3368L12.2773 1.66434C12.3018 1.64052 12.3329 1.63145 12.3585 1.6099C12.3807 1.58268 12.3896 1.54866 12.4152 1.52371C13.3871 0.524621 14.5959 -0.0253906 15.8202 -0.0253906H15.8224C16.9167 -0.0253906 17.9186 0.410082 18.7226 1.2334C19.4587 1.9864 19.8468 2.90158 19.8457 3.88253C19.8446 5.09595 19.2619 6.32752 18.1632 7.44569C18.141 7.46837 18.111 7.47631 18.0865 7.49672C18.062 7.52848 18.0509 7.5659 18.0231 7.59539L7.35889 18.3994C7.32887 18.43 7.28995 18.4414 7.2577 18.4675C7.21767 18.5004 7.1743 18.5264 7.12871 18.5537C7.0453 18.6047 6.9619 18.6444 6.87072 18.6705C6.84737 18.6773 6.83069 18.6931 6.80733 18.6988L1.19611 19.9485C1.11716 19.9655 1.03709 19.9746 0.95925 19.9746C0.652334 19.9746 0.354315 19.8442 0.14192 19.6083C-0.126076 19.3135 -0.220597 18.895 -0.107171 18.5083L1.56641 12.8109ZM6.02892 16.5407L16.4552 5.97484C16.4785 5.95216 16.5085 5.94308 16.533 5.92267C16.5564 5.89319 16.5664 5.85803 16.5931 5.83081C17.2447 5.16853 17.6183 4.45749 17.6195 3.87912C17.6206 3.50716 17.466 3.16921 17.148 2.84374C16.7643 2.45136 16.3184 2.25177 15.8224 2.25177H15.8213C15.203 2.25177 14.5369 2.57157 13.9932 3.13179C13.9676 3.15787 13.9342 3.16808 13.9064 3.19076C13.8853 3.21798 13.8764 3.25086 13.8519 3.27468L3.61585 13.751L2.56945 17.3119L6.02892 16.5407Z" fill="#8F8F8F"/>
</g>
<defs>
<clipPath id="clip0">
<rect width="20" height="20" fill="white"/>
</clipPath>
</defs>
</svg>
