<svg width="32" height="32" viewBox="0 0 32 32" fill="none" xmlns="http://www.w3.org/2000/svg">
<path fill-rule="evenodd" clip-rule="evenodd" d="M8.09729 16C9.84982 19.7311 12.8152 22 16 22C19.1848 22 22.1502 19.7311 23.9027 16C22.1502 12.2689 19.1848 10 16 10C12.8152 10 9.84982 12.2689 8.09729 16ZM6.0829 15.6014C8.00155 11.1874 11.6375 8 16 8C20.3625 8 23.9985 11.1874 25.9171 15.6014C26.0276 15.8556 26.0276 16.1444 25.9171 16.3987C23.9984 20.8126 20.3625 24 16 24C11.6375 24 8.00155 20.8126 6.0829 16.3987C5.97237 16.1444 5.97237 15.8556 6.0829 15.6014ZM16 14C14.8954 14 14 14.8954 14 16C14 17.1046 14.8954 18 16 18C17.1046 18 18 17.1046 18 16C18 14.8954 17.1046 14 16 14ZM12 16C12 13.7909 13.7909 12 16 12C18.2091 12 20 13.7909 20 16C20 18.2091 18.2091 20 16 20C13.7909 20 12 18.2091 12 16Z" fill="#1EB8E7"/>
<line x1="8.94561" y1="23.4122" x2="22.8685" y2="9.05414" stroke="white" stroke-width="5" stroke-linecap="round"/>
<line x1="8.97315" y1="23.586" x2="22.9897" y2="9.02685" stroke="#55B6E2" stroke-width="2" stroke-linecap="round"/>
</svg>
