<svg xmlns="http://www.w3.org/2000/svg" fill="none" viewBox="6 6 20 20">
<path fill-rule="evenodd" clip-rule="evenodd" d="M14.5636 12.3196C14.7702 9.90013 16.8011 8 19.2748 8C21.8863 8 24.0033 10.117 24.0033 12.7283C24.0033 15.3397 21.8863 17.4566 19.2748 17.4566C18.5536 17.4566 17.9058 17.3287 17.4252 17.032C17.0234 16.784 16.503 16.8508 16.1768 17.1922L14.8697 18.5604C14.6919 18.7465 14.5927 18.9939 14.5927 19.2512V20.4736L13.951 21.1153H11.9101C11.3578 21.1153 10.9101 21.5631 10.9101 22.1153V23.7707L10.6775 24.0033H8V22.5292L13.6125 16.9108C13.8676 17.3832 14.4533 17.5714 14.9376 17.3305C15.432 17.0845 15.6335 16.4842 15.3875 15.9898C15.1917 15.5962 15.0274 15.2124 14.8973 14.8326C14.6143 14.0063 14.4894 13.1892 14.5636 12.3196ZM12.5709 12.1495C12.4891 13.1078 12.5884 14.0086 12.8201 14.8742L6.29252 21.4086C6.10521 21.5961 6 21.8503 6 22.1153V25.0033C6 25.5556 6.44772 26.0033 7 26.0033H11.0918C11.357 26.0033 11.6113 25.8979 11.7988 25.7104L12.6172 24.8921C12.8047 24.7045 12.9101 24.4502 12.9101 24.1849V23.1153H14.3652C14.6304 23.1153 14.8847 23.01 15.0723 22.8225L16.2998 21.595C16.4874 21.4074 16.5927 21.1531 16.5927 20.8878L16.5927 19.6521L17.1209 19.0992C17.8425 19.3724 18.6009 19.4566 19.2748 19.4566C22.9908 19.4566 26.0033 16.4443 26.0033 12.7283C26.0033 9.01234 22.9908 6 19.2748 6C15.7536 6 12.8651 8.70398 12.5709 12.1495ZM19.4551 11.9106C19.4551 11.559 19.7401 11.2739 20.0918 11.2739C20.4435 11.2739 20.7285 11.559 20.7285 11.9106C20.7285 12.2622 20.4435 12.5473 20.0918 12.5473C19.7401 12.5473 19.4551 12.2622 19.4551 11.9106ZM20.0918 9.27393C18.6356 9.27393 17.4551 10.4544 17.4551 11.9106C17.4551 13.3668 18.6356 14.5473 20.0918 14.5473C21.548 14.5473 22.7285 13.3668 22.7285 11.9106C22.7285 10.4544 21.548 9.27393 20.0918 9.27393Z" fill="#163150"/>
</svg>