<svg width="32" height="32" viewBox="0 0 32 32" fill="none" xmlns="http://www.w3.org/2000/svg">
<path d="M13.7778 9.33333V11.5556H8.22222V23.7778H20.4444V18.2222H22.6667V24.8889C22.6667 25.1836 22.5496 25.4662 22.3412 25.6746C22.1329 25.8829 21.8502 26 21.5556 26H7.11111C6.81643 26 6.53381 25.8829 6.32544 25.6746C6.11706 25.4662 6 25.1836 6 24.8889V10.4444C6 10.1498 6.11706 9.86714 6.32544 9.65877C6.53381 9.4504 6.81643 9.33333 7.11111 9.33333H13.7778ZM26 6V14.8889H23.7778V9.79222L15.1189 18.4522L13.5478 16.8811L22.2056 8.22222H17.1111V6H26Z" fill="#55B6E2"/>
</svg>
