<svg viewBox="0 0 30 40" fill="none" xmlns="http://www.w3.org/2000/svg">
<g clip-path="url(#clip0)">
<path fill-rule="evenodd" clip-rule="evenodd" d="M1.21484 11.7598H23.6321V19.6816C23.6321 24.8177 19.4769 28.9812 14.3513 28.9812H10.4956C5.36997 28.9812 1.21484 24.8177 1.21484 19.6816V11.7598Z" fill="#1EB8E7"/>
<path opacity="0.25" fill-rule="evenodd" clip-rule="evenodd" d="M4.2038 14.006V20.3705C4.2038 25.1261 8.05114 28.9812 12.7971 28.9812H10.5553C5.39361 28.9606 1.21892 24.7641 1.21484 19.5918V11.7598L4.2038 14.006Z" fill="white"/>
<path fill-rule="evenodd" clip-rule="evenodd" d="M1.21484 11.7598H23.6321V19.6816C23.6321 24.8177 19.4769 28.9812 14.3513 28.9812H10.4956C5.36997 28.9812 1.21484 24.8177 1.21484 19.6816V11.7598Z" stroke="#163150" stroke-width="2.21793" stroke-linecap="round" stroke-linejoin="round"/>
<path fill-rule="evenodd" clip-rule="evenodd" d="M23.6321 11.3853C23.6239 12.8293 22.4577 13.9978 21.0167 14.006H3.83018C2.38577 14.006 1.21484 12.8327 1.21484 11.3853C1.22301 9.94136 2.38917 8.77283 3.83018 8.76465H21.0167C22.4577 8.77283 23.6239 9.94136 23.6321 11.3853Z" fill="#0C9FE1"/>
<path d="M6.44531 12.5088V8.72754H13.9177L7.93979 12.4713L6.44531 12.5088ZM21.0165 8.76496H17.6539V12.5088H19.1484L23.2059 9.96299C22.7294 9.21394 21.903 8.76178 21.0165 8.76496Z" fill="#007FC6"/>
<path d="M21.0114 8.76465H3.8355C2.38815 8.76465 1.21484 9.93796 1.21484 11.3853C1.21484 12.8327 2.38815 14.006 3.8355 14.006H21.0114C22.4587 14.006 23.6321 12.8327 23.6321 11.3853C23.6321 9.93796 22.4587 8.76465 21.0114 8.76465Z" stroke="#163150" stroke-width="2.21793" stroke-linecap="round" stroke-linejoin="round"/>
<path d="M9.38944 19.9967H7.23739C6.80449 19.9928 6.45339 19.6443 6.44531 19.2105V17.0466C6.44937 16.61 6.80163 16.257 7.23739 16.2529H9.38944C9.8252 16.257 10.1775 16.61 10.1815 17.0466V19.2105C10.1734 19.6443 9.82234 19.9928 9.38944 19.9967ZM14.665 19.2105V17.0466C14.6609 16.61 14.3086 16.257 13.8729 16.2529H11.7208C11.2851 16.257 10.9328 16.61 10.9288 17.0466V19.2105C10.9328 19.6472 11.2851 20.0002 11.7208 20.0042H13.8729C14.3086 20.0002 14.6609 19.6472 14.665 19.2105ZM19.1484 19.2105V17.0466C19.1443 16.61 18.7921 16.257 18.3563 16.2529H16.2043C15.7685 16.257 15.4162 16.61 15.4122 17.0466V19.2105C15.4162 19.6472 15.7685 20.0002 16.2043 20.0042H18.3563C18.7921 20.0002 19.1443 19.6472 19.1484 19.2105ZM10.1815 23.7031V21.5392C10.1775 21.1025 9.8252 20.7496 9.38944 20.7455H7.23739C6.80163 20.7496 6.44937 21.1025 6.44531 21.5392V23.7031C6.44937 24.1397 6.80163 24.4927 7.23739 24.4968H9.38944C9.8252 24.4927 10.1775 24.1397 10.1815 23.7031ZM14.665 23.7031V21.5392C14.6609 21.1025 14.3086 20.7496 13.8729 20.7455H11.7208C11.2851 20.7496 10.9328 21.1025 10.9288 21.5392V23.7031C10.9328 24.1397 11.2851 24.4927 11.7208 24.4968H13.8729C14.3086 24.4927 14.6609 24.1397 14.665 23.7031ZM19.1484 23.7031V21.5392C19.1443 21.1025 18.7921 20.7496 18.3563 20.7455H16.2043C15.7685 20.7496 15.4162 21.1025 15.4122 21.5392V23.7031C15.4162 24.1397 15.7685 24.4927 16.2043 24.4968H18.3563C18.7921 24.4927 19.1443 24.1397 19.1484 23.7031Z" fill="#0C9FE1"/>
<path fill-rule="evenodd" clip-rule="evenodd" d="M4.94922 11.2508V8.76495C4.94922 4.62966 8.29473 1.27734 12.4216 1.27734C16.5485 1.27734 19.894 4.62966 19.894 8.76495V11.2508C19.894 11.5354 19.0571 11.76 18.0259 11.76C16.9947 11.76 16.1578 11.5354 16.1578 11.2508V8.76495C16.1578 6.6973 14.4851 5.02114 12.4216 5.02114C10.3582 5.02114 8.68542 6.6973 8.68542 8.76495V11.2508C8.68542 11.5354 7.84851 11.76 6.81732 11.76C5.78613 11.76 4.94922 11.5354 4.94922 11.2508Z" fill="#E3EDFF"/>
<path fill-rule="evenodd" clip-rule="evenodd" d="M4.94922 11.2508V8.76495C4.94922 4.62966 8.29473 1.27734 12.4216 1.27734C16.5485 1.27734 19.894 4.62966 19.894 8.76495V11.2508C19.894 11.5354 19.0571 11.76 18.0259 11.76C16.9947 11.76 16.1578 11.5354 16.1578 11.2508V8.76495C16.1578 6.6973 14.4851 5.02114 12.4216 5.02114C10.3582 5.02114 8.68542 6.6973 8.68542 8.76495V11.2508C8.68542 11.5354 7.84851 11.76 6.81732 11.76C5.78613 11.76 4.94922 11.5354 4.94922 11.2508Z" stroke="#163150" stroke-width="2.21793" stroke-linecap="round" stroke-linejoin="round"/>
<path d="M25.1187 23.7402H10.1891C8.12147 23.7402 6.44531 25.4164 6.44531 27.484C6.44531 29.5517 8.12147 31.2278 10.1891 31.2278H25.1187C27.1864 31.2278 28.8625 29.5517 28.8625 27.484C28.8625 25.4164 27.1864 23.7402 25.1187 23.7402Z" fill="#FFAE25" stroke="#163150" stroke-width="2.21793" stroke-linecap="round" stroke-linejoin="round"/>
<path d="M25.1187 26.7354H10.1891C8.12147 26.7354 6.44531 28.4115 6.44531 30.4792C6.44531 32.5468 8.12147 34.223 10.1891 34.223H25.1187C27.1864 34.223 28.8625 32.5468 28.8625 30.4792C28.8625 28.4115 27.1864 26.7354 25.1187 26.7354Z" fill="#FFD166" stroke="#163150" stroke-width="2.21793" stroke-linecap="round" stroke-linejoin="round"/>
<path opacity="0.4" d="M12.4251 37.9666H16.1613M8.68886 37.9666C5.38734 37.9666 2.71094 35.2848 2.71094 31.9766L8.68886 37.9666Z" stroke="#8F8F8F" stroke-width="2.21793" stroke-linecap="round" stroke-linejoin="round"/>
<path opacity="0.4" d="M27.3687 11.0118C27.3699 9.05987 26.4219 7.22978 24.8281 6.10742" stroke="#8F8F8F" stroke-width="2.21793" stroke-linecap="round" stroke-linejoin="round"/>
<path opacity="0.4" d="M25.875 19.2475H28.864M27.3695 17.75V20.745V17.75Z" stroke="#8F8F8F" stroke-width="2.21793" stroke-linecap="round" stroke-linejoin="round"/>
</g>
<path d="M16.3944 32.7773H15.7303C15.656 32.7773 15.5943 32.7604 15.5453 32.7267C15.498 32.6912 15.465 32.6464 15.4464 32.5923L15.2285 31.9486H13.8244L13.6064 32.5923C13.5895 32.6396 13.5565 32.6827 13.5075 32.7216C13.4585 32.7588 13.3986 32.7773 13.3276 32.7773H12.6585L14.0879 29.0846H14.9649L16.3944 32.7773ZM14.022 31.3656H15.0308L14.6912 30.3543C14.6692 30.2901 14.643 30.2149 14.6126 30.1288C14.5839 30.0409 14.5551 29.9463 14.5264 29.8449C14.4994 29.948 14.4715 30.0434 14.4428 30.1313C14.414 30.2192 14.387 30.2952 14.3617 30.3594L14.022 31.3656ZM16.695 32.7773V29.0846H18.0535C18.3086 29.0846 18.5257 29.1082 18.7048 29.1555C18.8839 29.2028 19.0301 29.2696 19.1433 29.3557C19.2565 29.4419 19.3385 29.5467 19.3892 29.67C19.4415 29.7934 19.4677 29.9311 19.4677 30.0832C19.4677 30.1659 19.4559 30.2462 19.4322 30.3239C19.4086 30.4 19.3714 30.4718 19.3207 30.5394C19.27 30.607 19.205 30.6686 19.1256 30.7244C19.0462 30.7785 18.9507 30.8258 18.8392 30.8663C19.0825 30.9255 19.2624 31.0218 19.379 31.1553C19.4956 31.287 19.5539 31.4569 19.5539 31.6647C19.5539 31.8218 19.5235 31.968 19.4627 32.1032C19.4018 32.2383 19.3123 32.3566 19.194 32.458C19.0774 32.5577 18.9329 32.6363 18.7606 32.6937C18.5883 32.7495 18.3914 32.7773 18.1701 32.7773H16.695ZM17.5516 31.211V32.131H18.1548C18.2681 32.131 18.3601 32.1167 18.4311 32.088C18.5038 32.0592 18.5604 32.0221 18.6009 31.9764C18.6415 31.9308 18.6694 31.8793 18.6846 31.8218C18.6998 31.7644 18.7074 31.7061 18.7074 31.6469C18.7074 31.5794 18.6981 31.5185 18.6795 31.4645C18.6626 31.4104 18.6322 31.3648 18.5883 31.3276C18.546 31.2904 18.4894 31.2617 18.4184 31.2414C18.3475 31.2212 18.2579 31.211 18.1498 31.211H17.5516ZM17.5516 30.6382H17.9977C18.0923 30.6382 18.1777 30.6315 18.2537 30.6179C18.3297 30.6044 18.3939 30.5808 18.4463 30.547C18.5004 30.5132 18.5409 30.4667 18.568 30.4076C18.5967 30.3484 18.6111 30.2741 18.6111 30.1845C18.6111 30.0967 18.6001 30.024 18.5781 29.9666C18.5561 29.9074 18.5224 29.8601 18.4767 29.8246C18.4311 29.7891 18.3728 29.7638 18.3019 29.7486C18.2326 29.7334 18.1498 29.7258 18.0535 29.7258H17.5516V30.6382ZM22.5028 31.8218C22.5231 31.8218 22.5434 31.8261 22.5636 31.8345C22.5839 31.8413 22.6033 31.8539 22.6219 31.8725L22.9616 32.2299C22.8129 32.4242 22.6262 32.5712 22.4014 32.6709C22.1784 32.7689 21.914 32.8179 21.6081 32.8179C21.3276 32.8179 21.0759 32.7706 20.8528 32.676C20.6315 32.5797 20.4431 32.4479 20.2876 32.2806C20.1339 32.1116 20.0156 31.9122 19.9328 31.6824C19.85 31.4509 19.8086 31.2 19.8086 30.9297C19.8086 30.6543 19.8559 30.4017 19.9506 30.1719C20.0452 29.9404 20.177 29.741 20.3459 29.5737C20.5166 29.4064 20.7202 29.2763 20.9568 29.1834C21.1933 29.0905 21.4544 29.044 21.7399 29.044C21.8785 29.044 22.0086 29.0567 22.1302 29.082C22.2536 29.1057 22.3685 29.1395 22.4749 29.1834C22.5814 29.2256 22.6794 29.2772 22.7689 29.338C22.8585 29.3971 22.9379 29.463 23.0072 29.5357L22.7182 29.9235C22.6997 29.9471 22.6777 29.9691 22.6523 29.9894C22.627 30.008 22.5915 30.0173 22.5459 30.0173C22.5155 30.0173 22.4868 30.0105 22.4597 29.997C22.4327 29.9835 22.404 29.9674 22.3736 29.9488C22.3431 29.9285 22.3093 29.9074 22.2722 29.8855C22.2367 29.8618 22.1936 29.8407 22.1429 29.8221C22.0939 29.8018 22.0356 29.7849 21.968 29.7714C21.9021 29.7579 21.8244 29.7511 21.7349 29.7511C21.5794 29.7511 21.4375 29.779 21.3091 29.8348C21.1806 29.8888 21.07 29.9674 20.977 30.0705C20.8858 30.1719 20.814 30.2952 20.7616 30.4405C20.7109 30.5858 20.6856 30.7489 20.6856 30.9297C20.6856 31.1189 20.7109 31.287 20.7616 31.434C20.814 31.5811 20.8841 31.7052 20.972 31.8066C21.0615 31.9063 21.1654 31.9824 21.2837 32.0347C21.402 32.0871 21.5287 32.1133 21.6639 32.1133C21.7416 32.1133 21.8126 32.1099 21.8768 32.1032C21.941 32.0947 22.0001 32.0812 22.0542 32.0626C22.11 32.044 22.1623 32.0204 22.2113 31.9916C22.262 31.9612 22.3127 31.9241 22.3634 31.8801C22.3837 31.8632 22.4057 31.8497 22.4293 31.8396C22.453 31.8277 22.4775 31.8218 22.5028 31.8218Z" fill="black"/>
<defs>
<clipPath id="clip0">
<rect width="30" height="39.1735" fill="white"/>
</clipPath>
</defs>
</svg>
