<svg xmlns="http://www.w3.org/2000/svg" viewBox="0 0 17 20"><rect width="100%" height="100%" fill="none"/><g class="currentLayer"><path d="M8.3 11.3c-3.1 0-5.7-2.5-5.7-5.7S5.2 0 8.3 0s5.6 2.5 5.6 5.7-2.5 5.6-5.6 5.6zm0-9.3c-2 0-3.7 1.6-3.7 3.7s1.6 3.7 3.7 3.7c2 0 3.7-1.6 3.7-3.7S10.3 2 8.3 2zm0 18c-.7 0-1.5 0-2.2-.1l-2.4-.3C1.9 19.2.8 18.5.3 17.5c-.4-.9-.4-1.9 0-2.8.5-1.1 1.7-1.8 3.5-2.1.8-.2 1.6-.3 2.4-.3 1.2-.1 2.9-.1 4.4 0l2.4.3c1.8.4 2.9 1.1 3.4 2.1.4.9.4 1.9 0 2.8-.5 1.1-1.7 1.8-3.5 2.1-.8.2-1.6.3-2.4.3-.7.1-1.4.1-2.2.1zm0-5.9c-.8 0-1.4 0-2 .1l-2.1.3c-1.1.2-1.9.6-2.1 1-.2.3-.2.7 0 1 .1.3.5.7 2 1 .7.2 1.4.3 2.2.3 1.5.1 3 .1 4.1 0 .7-.1 1.4-.2 2.2-.3 1.1-.2 1.9-.6 2.1-1 .2-.3.2-.7 0-1-.1-.3-.5-.7-2-1-.7-.2-1.4-.3-2.2-.3-.8-.1-1.5-.1-2.2-.1z"/></g></svg>
