<svg viewBox="0 0 20 20" fill="none" xmlns="http://www.w3.org/2000/svg">
<path fill-rule="evenodd" clip-rule="evenodd" d="M9.08223 2C9.01319 2 8.95723 2.05596 8.95723 2.125V4.71335L8.29077 4.94914C8.07561 5.02527 7.86556 5.11487 7.6617 5.21731L7.01631 5.54162L5.16888 3.69412C5.12008 3.64533 5.04095 3.64531 4.99214 3.69409L3.69422 4.99212C3.64541 5.04093 3.64537 5.12006 3.69417 5.16888L5.54165 7.01624L5.21732 7.66164C5.11495 7.86536 5.02537 8.07547 4.9492 8.29077L4.7134 8.95723H2.125C2.05596 8.95723 2 9.01319 2 9.08223V10.9178C2 10.9868 2.05596 11.0428 2.125 11.0428H4.66355L4.88179 11.7466C4.95559 11.9846 5.04553 12.2169 5.1509 12.442L5.44821 13.0772L3.69419 14.8311C3.64537 14.8799 3.64537 14.959 3.69419 15.0078L4.99211 16.3059C5.04091 16.3547 5.12004 16.3547 5.16885 16.3059L6.87302 14.6016L7.52792 14.9536C7.77311 15.0854 8.02806 15.1984 8.29076 15.2913L8.95723 15.5271V17.875C8.95723 17.944 9.01319 18 9.08223 18H10.9178C10.9868 18 11.0428 17.944 11.0428 17.875V15.577L11.7466 15.3587C12.0331 15.2699 12.3113 15.1576 12.5788 15.0232L13.2243 14.6988L14.8311 16.3059C14.8799 16.3546 14.9591 16.3547 15.0079 16.3059L16.3058 15.0079C16.3546 14.9591 16.3546 14.8799 16.3058 14.8311L14.6989 13.2242L15.0232 12.5788C15.1576 12.3113 15.2699 12.0331 15.3588 11.7466L15.577 11.0428H17.875C17.944 11.0428 18 10.9868 18 10.9178V9.08223C18 9.01319 17.944 8.95723 17.875 8.95723H15.5271L15.2913 8.29077C15.1984 8.028 15.0855 7.77305 14.9537 7.52792L14.6016 6.87304L16.3058 5.1689C16.3546 5.12008 16.3546 5.04097 16.3058 4.99216L15.0079 3.69412C14.9591 3.64535 14.8799 3.64532 14.8311 3.6941L13.0771 5.44822L12.442 5.15092C12.2167 5.04549 11.9845 4.95551 11.7466 4.88175L11.0428 4.66351V2.125C11.0428 2.05596 10.9868 2 10.9178 2H9.08223ZM17.72 6.58312L17.3459 6.95723H17.875C19.0486 6.95723 20 7.90862 20 9.08223V10.9178C20 12.0914 19.0486 13.0428 17.875 13.0428H17.3459L17.72 13.4169C18.5499 14.2467 18.5499 15.5922 17.7201 16.422L16.4221 17.7201C15.5923 18.5499 14.2468 18.55 13.4169 17.7201L13.0428 17.3459V17.875C13.0428 19.0486 12.0914 20 10.9178 20H9.08223C7.90863 20 6.95723 19.0486 6.95723 17.875V17.3459L6.58313 17.7201C5.75327 18.5499 4.40775 18.55 3.57789 17.7201L2.27998 16.4221C1.45014 15.5922 1.45012 14.2467 2.27998 13.4169L2.65411 13.0428H2.125C0.951396 13.0428 0 12.0914 0 10.9178V9.08223C0 7.90862 0.951396 6.95723 2.125 6.95723H2.65412L2.28 6.58314C1.45015 5.75328 1.45011 4.40784 2.27994 3.57798L3.57786 2.27994C4.40772 1.45008 5.75323 1.45004 6.5831 2.27991L6.95723 2.65406V2.125C6.95723 0.951394 7.90863 0 9.08223 0H10.9178C12.0914 0 13.0428 0.951394 13.0428 2.125V2.65407L13.4169 2.27993C14.2467 1.45007 15.5922 1.45004 16.4221 2.27991L17.72 3.57794C18.5499 4.40781 18.5499 5.75327 17.72 6.58312ZM6.92578 10C6.92578 8.30216 8.30216 6.92578 10 6.92578C11.6978 6.92578 13.0742 8.30216 13.0742 10C13.0742 11.6978 11.6978 13.0742 10 13.0742C8.30216 13.0742 6.92578 11.6978 6.92578 10ZM10 8.92578C9.40672 8.92578 8.92578 9.40672 8.92578 10C8.92578 10.5933 9.40672 11.0742 10 11.0742C10.5933 11.0742 11.0742 10.5933 11.0742 10C11.0742 9.40672 10.5933 8.92578 10 8.92578Z" fill="white"/>
</svg>
