<svg width="28" height="28" viewBox="0 0 28 28" fill="none" xmlns="http://www.w3.org/2000/svg">
<path d="M2 6C2 3.79086 3.79086 2 6 2H22C24.2091 2 26 3.79086 26 6V22C26 24.2091 24.2091 26 22 26H6C3.79086 26 2 24.2091 2 22V6Z" fill="white"/>
<mask id="mask0_19167_25561" style="mask-type:alpha" maskUnits="userSpaceOnUse" x="7" y="8" width="14" height="12">
<path fill-rule="evenodd" clip-rule="evenodd" d="M16.9317 13L13.3553 9.83893C12.8815 9.42013 12.8937 8.73289 13.3553 8.31409C13.8291 7.8953 14.5945 7.8953 15.0683 8.31409L20.6446 13.243C21.1185 13.6617 21.1185 14.3383 20.6446 14.757L15.0683 19.6859C14.5945 20.1047 13.8291 20.1047 13.3553 19.6859C13.1278 19.4853 13 19.2129 13 18.9289C13 18.6448 13.1278 18.3724 13.3553 18.1718L16.9438 15H8C7.44772 15 7 14.5523 7 14C7 13.4477 7.44772 13 8 13H16.9317Z" fill="white"/>
</mask>
<g mask="url(#mask0_19167_25561)">
<rect x="2" y="2" width="24" height="24" fill="#55B6E2"/>
</g>
<path d="M6 4H22V0H6V4ZM24 6V22H28V6H24ZM22 24H6V28H22V24ZM4 22V6H0V22H4ZM6 24C4.89543 24 4 23.1046 4 22H0C0 25.3137 2.68629 28 6 28V24ZM24 22C24 23.1046 23.1046 24 22 24V28C25.3137 28 28 25.3137 28 22H24ZM22 4C23.1046 4 24 4.89543 24 6H28C28 2.68629 25.3137 0 22 0V4ZM6 0C2.68629 0 0 2.68629 0 6H4C4 4.89543 4.89543 4 6 4V0Z" fill="#55B6E2"/>
</svg>
