<svg viewBox="0 0 20 20" fill="none" xmlns="http://www.w3.org/2000/svg">
<path fill-rule="evenodd" clip-rule="evenodd" d="M9.1023 12.3422C9.09011 12.2164 8.96908 10.492 10.8489 9.07351C11.96 8.23581 11.4858 6.4163 9.99865 6.4163C9.13552 6.4163 8.4995 7.03845 8.4995 7.79453C8.47463 8.97515 6.68948 8.97276 6.69926 7.79453C6.69926 6.04113 8.17112 4.69922 9.99865 4.69922C11.8064 4.69922 13.2993 6.11007 13.2993 7.87225C13.2993 8.3947 13.1972 8.863 12.9726 9.29025C12.3533 10.4682 10.8971 10.7297 10.8971 12.3422C10.8971 13.384 9.19692 13.4652 9.1023 12.3422ZM9.99803 13.7929C8.84078 13.7864 8.83684 15.4976 9.9926 15.4992C11.1402 15.5008 11.147 13.7993 9.99803 13.7929Z" fill="#163150"/>
<path fill-rule="evenodd" clip-rule="evenodd" d="M10 2C5.58172 2 2 5.58172 2 10C2 14.4183 5.58172 18 10 18C14.4183 18 18 14.4183 18 10C18 5.58172 14.4183 2 10 2ZM0 10C0 4.47715 4.47715 0 10 0C15.5228 0 20 4.47715 20 10C20 15.5228 15.5228 20 10 20C4.47715 20 0 15.5228 0 10Z" fill="#163150"/>
</svg>
