<svg viewBox="0 0 20 20" fill="none" xmlns="http://www.w3.org/2000/svg">
<path fill-rule="evenodd" clip-rule="evenodd" d="M6.99999 8C6.99999 5.72417 8.85639 4 11 4C13.1436 4 15 5.72417 15 8C15 10.2758 13.1436 12 11 12C8.85639 12 6.99999 10.2758 6.99999 8ZM11 6C9.83141 6 8.99999 6.9641 8.99999 8C8.99999 9.03589 9.83141 10 11 10C12.1686 10 13 9.03589 13 8C13 6.9641 12.1686 6 11 6Z" fill="#163150"/>
<path d="M9.30677 15.0001L9.53563 14.3476C9.99989 13.0889 8.2374 12.3561 7.76038 13.6528L7.05901 15.6527C6.84416 16.2653 7.26614 17 7.94663 17H14C14.6847 17 15.1064 16.2572 14.8843 15.6432L14.161 13.6433C13.6725 12.3236 11.9131 13.0751 12.3925 14.3571L12.6251 15.0001H9.30677Z" fill="#163150"/>
<path fill-rule="evenodd" clip-rule="evenodd" d="M2 1C2 0.447715 2.44772 0 3 0H19C19.5523 0 20 0.447715 20 1V19C20 19.5523 19.5523 20 19 20H3C2.44772 20 2 19.5523 2 19V16H1C0.447715 16 0 15.5523 0 15C0 14.4478 0.447715 14 1 14H2V5.99998H1C0.447716 5.99998 5.96046e-07 5.55227 7.15256e-07 4.99999C8.34465e-07 4.4477 0.447716 3.99999 1 3.99999L2 3.99999V1ZM4 2V18H18V2H4Z" fill="#163150"/>
</svg>
