<svg viewBox="0 0 20 20" fill="none" xmlns="http://www.w3.org/2000/svg">
<path d="M12.8284 8.58579C13.219 8.19526 13.219 7.5621 12.8284 7.17157C12.4379 6.78105 11.8047 6.78105 11.4142 7.17157L10 8.58577L8.58581 7.17155C8.19528 6.78103 7.56212 6.78103 7.17159 7.17155C6.78107 7.56208 6.78107 8.19524 7.17159 8.58577L8.58581 9.99998L7.17157 11.4142C6.78105 11.8047 6.78105 12.4379 7.17157 12.8284C7.5621 13.219 8.19526 13.219 8.58579 12.8284L10 11.4142L11.4142 12.8284C11.8048 13.2189 12.4379 13.2189 12.8284 12.8284C13.219 12.4379 13.219 11.8047 12.8284 11.4142L11.4142 9.99998L12.8284 8.58579Z" fill="#1EB8E7"/>
<path fill-rule="evenodd" clip-rule="evenodd" d="M17.0711 2.92893C13.1658 -0.976311 6.83417 -0.976311 2.92893 2.92893C-0.976311 6.83417 -0.976311 13.1658 2.92893 17.0711C6.83417 20.9763 13.1658 20.9763 17.0711 17.0711C20.9763 13.1658 20.9763 6.83417 17.0711 2.92893ZM4.34315 4.34315C7.46734 1.21895 12.5327 1.21895 15.6569 4.34315C18.781 7.46734 18.781 12.5327 15.6569 15.6569C12.5327 18.781 7.46734 18.781 4.34315 15.6569C1.21895 12.5327 1.21895 7.46734 4.34315 4.34315Z" fill="#1EB8E7"/>
</svg>
