<svg width="16" height="16" viewBox="0 0 16 16" fill="none" xmlns="http://www.w3.org/2000/svg">
<path d="M13.781 0.650906C13.6309 0.726317 13.9311 0.575495 1.40044 6.45754C0.124862 7.06082 0.199895 8.49363 1.40044 8.94609C2.00071 9.24774 3.87655 10.0773 4.25172 10.2281C4.40179 10.6805 5.07709 12.9429 5.22716 13.5462C5.60232 14.9035 6.57776 14.8281 6.95293 14.4511L8.75374 12.7166L11.0048 15.0544C11.6801 15.8085 13.0307 15.6577 13.2558 14.3757L15.4317 2.23453C15.6568 1.17878 14.9065 0.12303 13.781 0.650906ZM14.2312 1.93289L12.0552 14.2248L8.75374 10.8314L6.57776 12.9429L7.25307 10.0773L11.605 5.17555C11.605 5.17555 11.8301 4.87391 11.8301 4.7985C11.8301 4.72309 11.7551 4.64768 11.6801 4.64768C11.605 4.64768 11.3799 4.7985 11.3799 4.7985L4.77695 9.09692L1.92567 7.73952L14.2312 1.93289Z" fill="#1EB8E7"/>
</svg>
