<svg viewBox="0 0 21 21" xmlns="http://www.w3.org/2000/svg">
<path fill-rule="evenodd" clip-rule="evenodd" d="M10.2109 2.0918C8.0018 2.0918 6.21094 3.88266 6.21094 6.0918V7.0918H19.2109C19.7632 7.0918 20.2109 7.53951 20.2109 8.0918V19.0918C20.2109 19.6441 19.7632 20.0918 19.2109 20.0918H1.21094C0.658653 20.0918 0.210938 19.6441 0.210938 19.0918L0.210938 8.0918C0.210938 7.53951 0.658653 7.0918 1.21094 7.0918H4.21094V6.0918C4.21094 2.77809 6.89723 0.0917969 10.2109 0.0917969C13.5246 0.0917969 16.2109 3.27809 16.2109 6.5918V7.0918C15.2109 7.0918 15.7632 7.0918 15.2109 7.0918C14.6587 7.0918 15.2109 7.0918 14.2109 7.0918V6.5918C14.2109 4.38266 12.4201 2.0918 10.2109 2.0918ZM2.21094 9.0918V18.0918H18.2109V9.0918H2.21094ZM8.21094 12.0918C8.21094 10.9872 9.10637 10.0918 10.2109 10.0918C11.3155 10.0918 12.2109 10.9872 12.2109 12.0918C12.2109 12.8321 11.8087 13.4784 11.2109 13.8242V16.0918C11.2109 16.6441 10.7632 17.0918 10.2109 17.0918C9.65865 17.0918 9.21094 16.6441 9.21094 16.0918V13.8242C8.61314 13.4784 8.21094 12.8321 8.21094 12.0918Z" />
</svg>
