<svg viewBox="0 0 32 38" fill="none" xmlns="http://www.w3.org/2000/svg">
<path d="M30.3792 4.72569V13.1377C30.4796 16.8351 29.9558 20.523 28.8299 24.0454L28.6687 24.4853C28.1246 25.9941 27.4126 27.4366 26.5461 28.7855C26.3938 29.019 26.2326 29.2434 26.0714 29.4858C23.8118 32.6429 20.8377 35.218 17.3931 37C16.9184 36.7576 16.4975 36.4973 16.0229 36.2369C9.39545 32.3676 6.52954 27.5466 5.3384 22.8603C5.16824 22.2229 5.04285 21.5945 4.91747 20.9751C4.54378 18.7057 4.37592 16.407 4.41594 14.1072C4.41594 13.784 4.41594 13.4698 4.41594 13.2095V4.72569C8.54728 4.11465 12.5911 3.01159 16.4617 1.4399C17.0976 1.17057 17.4021 1 17.4021 1C19.3207 1.91551 21.3206 2.64889 23.3757 3.19052C25.6792 3.83523 28.0175 4.34778 30.3792 4.72569Z" fill="#1EB8E7"/>
<path d="M28.6572 24.4759C28.1131 25.9847 27.4011 27.4272 26.5346 28.7761C26.3823 29.0095 26.2211 29.234 26.0599 29.4764C23.7995 32.6304 20.8254 35.2025 17.3816 36.9816C16.9069 36.7392 16.486 36.4789 16.0114 36.2185C9.3929 32.3671 6.527 27.5372 5.33586 22.8599C5.16569 22.2225 5.04031 21.5941 4.91493 20.9746C6.79568 19.7716 8.49731 18.7751 8.49731 18.7751L8.97197 18.6764L4.44922 14.1068C4.44922 13.7836 4.44922 13.4784 4.44922 13.209V4.72524C8.57757 4.11375 12.6184 3.0107 16.486 1.43945C17.6234 1.8614 19.1728 2.42698 19.1728 2.47187C23.0239 4.72524 25.039 12.4459 22.7552 16.9527L28.6572 24.4759Z" fill="#0C9FE1"/>
<path opacity="0.4" d="M17.6264 35.384C4.73879 28.6418 6.6464 20.3645 6.6464 13.1735V4.77051" stroke="white" stroke-width="0.901347"/>
<path fill-rule="evenodd" clip-rule="evenodd" d="M30.3785 13.1736C30.3785 20.1761 29.3486 30.5092 17.3924 36.991C4.51372 30.2489 4.40625 20.1671 4.40625 13.1736V4.72569C13.1831 3.26234 17.3924 1 17.3924 1C17.3924 1 21.7539 3.3611 30.3785 4.72569V13.1736Z" stroke="#163150" stroke-width="1.80269" stroke-linecap="round" stroke-linejoin="round"/>
<path d="M29.7066 29.988L19.3625 16.5666C23.8404 7.90322 13.0396 -1.79254 4.75531 4.63539C-3.21549 10.812 2.53424 23.8025 12.3589 21.4234L14.7591 24.7002L17.5444 25.0234L17.1951 27.7795L18.6191 29.6199L21.3686 29.9701L21.0193 32.7262L22.2194 34.2793L27.7184 34.396L29.7066 29.988ZM7.25402 14.8967C3.78807 10.408 10.5677 5.15609 14.0247 9.65385L7.25402 14.8967Z" fill="#FFD166" stroke="#163150" stroke-width="1.80269" stroke-linecap="round" stroke-linejoin="round"/>
<path opacity="0.6" d="M17.168 18.1201L26.1956 29.8268" stroke="white" stroke-width="0.901347"/>
<path opacity="0.4" d="M16.3984 18.7217L25.4171 30.4284L16.3984 18.7217Z" fill="#163150"/>
<path opacity="0.5" d="M15.3768 10.5254L7.68359 16.4865" stroke="white" stroke-width="0.901347"/>
</svg>
