<svg width="18" height="24" viewBox="0 0 18 24" fill="none" xmlns="http://www.w3.org/2000/svg">
<path fill-rule="evenodd" clip-rule="evenodd" d="M0 1.875C0 1.25368 0.50368 0.75 1.125 0.75H16.875C17.4963 0.75 18 1.25368 18 1.875V18.75C18 19.1041 17.8333 19.4375 17.55 19.65L13.05 23.025C12.6684 23.3112 12.1478 23.3256 11.751 23.0611L7.20362 20.0295L1.58191 22.028C0.850879 22.3529 0 21.8 0 21V1.875ZM2.25 3V19.2689L6.85559 17.722C7.20787 17.5654 7.61578 17.6001 7.93654 17.8139L12.3368 20.7474L15.75 18.1875V3H2.25ZM5.625 6.375H12.375C13.8461 6.37387 13.8588 8.62708 12.375 8.625H5.625C4.12256 8.6249 4.12195 6.3749 5.625 6.375ZM5.625 10.875H12.375C13.8771 10.8878 13.8736 13.1369 12.375 13.125H5.625C4.12115 13.1385 4.10111 10.8837 5.625 10.875Z" fill="#163150"/>
</svg>
