<svg viewBox="0 0 20 20" fill="none" xmlns="http://www.w3.org/2000/svg">
<path d="M10 2C7.97143 2 6.11913 2.75445 4.70819 4H6.4917C7.04398 4 7.4917 4.44772 7.4917 5C7.4917 5.55228 7.04398 6 6.4917 6H2.4917C1.93941 6 1.4917 5.55228 1.4917 5V1C1.4917 0.447715 1.93941 0 2.4917 0C3.04398 0 3.4917 0.447715 3.4917 1V2.40768C5.24023 0.907596 7.51415 0 10 0C15.5228 0 20 4.47715 20 10C20 10.5523 19.5523 11 19 11C18.4477 11 18 10.5523 18 10C18 5.58172 14.4183 2 10 2Z" fill="#163150"/>
<path d="M1 9C1.55228 9 2 9.44771 2 10C2 14.4183 5.58172 18 10 18C12.0285 18 13.8809 17.2455 15.2918 16H13.481C12.9287 16 12.481 15.5523 12.481 15C12.481 14.4477 12.9287 14 13.481 14H17.481C18.0332 14 18.481 14.4477 18.481 15V19C18.481 19.5523 18.0332 20 17.481 20C16.9287 20 16.481 19.5523 16.481 19V17.6157C14.7361 19.1018 12.473 20 10 20C4.47715 20 0 15.5228 0 10C0 9.44771 0.447715 9 1 9Z" fill="#163150"/>
</svg>
