<svg width="125" height="109" viewBox="0 0 125 109" fill="none" xmlns="http://www.w3.org/2000/svg">
<path opacity="0.3" d="M1.59313 68.6389C-8.27741 108.121 66.6559 130.721 116.881 78.5094C135.556 59.096 115.156 49.2413 103.852 35.8687C67.1336 -7.56176 31.2048 -8.35141 23.3083 22.0499C14.9934 54.066 5.59268 52.6328 1.59313 68.6389Z" fill="#D3E6F2"/>
<path d="M56.111 88.131C53.2537 88.9995 47.4927 89.7752 44.5425 90.4712C39.4975 91.6579 43.031 98.2808 52.2725 95.7748C55.0901 95.0191 59.2136 93.4612 60.9837 91.9762C62.2167 90.9353 62.6344 87.3156 56.111 88.131Z" fill="white" stroke="#163050" stroke-width="2.36328" stroke-linecap="round" stroke-linejoin="round"/>
<path d="M54.295 72.7629C54.295 76.4484 54.9484 83.6224 54.7262 89.2885C54.7262 90.6614 58.1831 90.819 58.1831 89.446C58.1831 89.446 59.6926 77.2136 59.6926 73.2693C59.6926 69.325 54.295 69.0774 54.295 72.7629Z" fill="#FFD167" stroke="#163050" stroke-width="2.36328" stroke-linecap="round" stroke-linejoin="round"/>
<path d="M73.6062 89.3413C76.0078 90.3291 80.9776 91.2367 83.5643 92.4282C88.5526 94.7495 84.7435 99.9477 75.909 96.6386C73.2852 95.657 71.4516 95.2063 69.6489 93.4715C68.0993 92.0022 67.5252 87.9338 73.6062 89.3413Z" fill="white" stroke="#163050" stroke-width="2.36328" stroke-linecap="round" stroke-linejoin="round"/>
<path d="M70.481 74.1526C70.481 77.8606 71.7429 85.1134 71.8481 90.8245C71.8481 92.0568 75.3251 92.2143 75.3251 90.9821C75.3251 90.9821 75.9298 78.6034 75.9298 74.6647C75.9298 70.726 70.481 70.4447 70.481 74.1526Z" fill="#FFD167" stroke="#163050" stroke-width="2.36328" stroke-linecap="round" stroke-linejoin="round"/>
<path d="M21.356 10.5935C21.356 7.21753 23.8712 4.46608 27.3935 3.80213C39.6203 0.578032 83.3734 0.611793 100.619 4.10597C102.316 4.36503 103.862 5.22862 104.973 6.53763C106.083 7.84665 106.683 9.51289 106.662 11.2294C106.662 14.2565 106.662 23.3324 106.662 23.3324V43.3409C78.0484 39.7425 49.0857 39.9184 20.5177 43.8642L21.356 10.5935Z" fill="#02BAEC"/>
<path d="M101.84 16.4903V14.8698C101.84 12.0565 99.5501 9.65951 96.7368 9.16999C80.3519 5.79398 46.9743 5.74333 30.2293 9.00119C29.3006 9.1347 28.4481 9.58949 27.82 10.2865C27.1918 10.9835 26.8279 11.8785 26.7914 12.8161V15.5507M21.356 10.5935C21.356 7.21753 23.8711 4.46608 27.3934 3.80213C39.6202 0.578032 83.3734 0.611793 100.619 4.10597C102.316 4.36503 103.862 5.22862 104.973 6.53763C106.083 7.84665 106.683 9.51289 106.662 11.2294C106.662 14.2565 106.662 27.2429 106.662 27.2429L21.356 18.8237V10.5935Z" stroke="#163050" stroke-width="2.36328" stroke-linecap="round" stroke-linejoin="round"/>
<path opacity="0.1" d="M26.8027 12.8444C26.8027 12.94 39.7047 11.0776 55.4707 10.6893C71.2254 10.1267 89.8385 11.0157 101.007 12.338C103.945 12.8219 106.319 14.1329 106.319 20.1759C106.319 20.1759 106.043 16.6986 97.6483 16.0403C93.479 15.6521 75.873 14.0428 59.3474 14.2848C42.8162 14.2454 27.371 16.0459 27.3935 15.9728C19.5161 15.4101 20.3207 9.01821 28.1981 9.91285C26.5213 12.2142 26.8027 12.8444 26.8027 12.8444Z" fill="#163050"/>
<path d="M106.645 42.8231C110.337 44.3198 111.147 39.1095 111.147 32.9933C111.147 29.7861 109.245 26.7027 106.645 24.8909V42.8231Z" fill="#0088CC" stroke="#163050" stroke-width="2.36328" stroke-linecap="round" stroke-linejoin="round"/>
<path d="M100.625 77.5513C74.562 76.7017 53.1243 76.3641 27.3991 77.2475C23.7305 77.3994 21.7105 74.6761 21.4629 71.9302C19.578 51.4602 19.5423 30.8619 21.356 10.3855C21.356 14.4367 24.3719 16.2147 27.3935 16.0122C51.7714 14.168 76.2575 14.2696 100.619 16.316C102.28 16.5319 103.803 17.3534 104.896 18.623C106.014 19.8712 106.641 21.4824 106.662 23.1581C106.662 23.1581 106.921 60.0242 106.662 72.2622C106.6 75.4863 104.26 77.692 100.625 77.5513Z" fill="#02BAEC" stroke="#163050" stroke-width="2.36328" stroke-linecap="round" stroke-linejoin="round"/>
<path d="M103.359 23.895C103.338 22.8076 102.93 21.7635 102.208 20.9499C101.486 20.1363 100.498 19.6065 99.4207 19.4556M99.4207 74.4902C99.9176 74.5607 100.424 74.522 100.904 74.377C101.385 74.232 101.828 73.984 102.202 73.6504C102.577 73.3168 102.875 72.9055 103.075 72.4451C103.275 71.9848 103.372 71.4865 103.359 70.9848" stroke="#163050" stroke-width="2.36328" stroke-linecap="round" stroke-linejoin="round"/>
<path opacity="0.1" d="M108.744 55.2808C108.772 64.0753 78.9621 66.2809 78.9227 50.273C78.9227 31.5586 103.264 41.3603 108.744 38.5864C108.744 38.592 108.744 50.6669 108.744 55.2808Z" fill="#163050"/>
<path d="M102.921 58.8368C99.9984 58.6117 97.0725 58.4242 94.1429 58.2741C82.6251 57.8409 82.5294 39.8186 94.1429 40.2687C97.0613 40.415 99.9759 40.6026 102.887 40.8314H102.921C107.461 41.1746 111.136 37.7367 111.136 33.0046V51.0101C111.136 55.7421 107.467 59.1856 102.921 58.8368Z" fill="#02BAEC" stroke="#163050" stroke-width="2.36328" stroke-linecap="round" stroke-linejoin="round"/>
<path d="M98.9087 49.5471C98.9087 43.5603 90.238 43.0932 90.2324 49.1082C90.238 55.0443 98.9143 55.4888 98.9087 49.5471Z" fill="#FFD167" stroke="#163050" stroke-width="2.36328" stroke-linecap="round" stroke-linejoin="round"/>
<path d="M108.137 45.7324V52.6251" stroke="#163050" stroke-width="2.36328" stroke-linecap="round" stroke-linejoin="round"/>
<path d="M19.9662 36.921C10.5753 41.9287 9.41618 85.7325 26.1556 77.1518C22.7796 76.5892 21.3729 74.4791 21.0916 68.5711C19.9159 68.7736 18.8062 69.256 17.8562 69.9778C15.1835 61.3971 16.4495 45.9237 20.9509 41.7037C23.3535 39.453 22.0762 35.7956 19.9662 36.921Z" fill="white" stroke="#163050" stroke-width="2.36328" stroke-linecap="round" stroke-linejoin="round"/>
<path d="M68.0069 58.3135C68.0069 56.9205 67.4535 55.5845 66.4685 54.5995C65.4834 53.6144 64.1474 53.061 62.7544 53.061C61.3613 53.061 60.0253 53.6144 59.0403 54.5995C58.0553 55.5845 57.5019 56.9205 57.5019 58.3135" stroke="#163050" stroke-width="2.36328" stroke-linecap="round" stroke-linejoin="round"/>
<path d="M47.9422 44.9165C47.9422 45.8119 48.2978 46.6706 48.931 47.3037C49.5641 47.9368 50.4228 48.2925 51.3182 48.2925C52.2135 48.2925 53.0722 47.9368 53.7054 47.3037C54.3385 46.6706 54.6942 45.8119 54.6942 44.9165" stroke="#163050" stroke-width="2.36328" stroke-linecap="round" stroke-linejoin="round"/>
<path d="M47.0981 41.3434L54.2215 38.0574" stroke="#163050" stroke-width="2.36328" stroke-linecap="round" stroke-linejoin="round"/>
<path d="M71.0115 44.9165C71.0115 45.8119 71.3672 46.6706 72.0004 47.3037C72.6335 47.9368 73.4922 48.2925 74.3876 48.2925C75.2829 48.2925 76.1416 47.9368 76.7748 47.3037C77.4079 46.6706 77.7636 45.8119 77.7636 44.9165" stroke="#163050" stroke-width="2.36328" stroke-linecap="round" stroke-linejoin="round"/>
<path d="M71.4785 38.1531L78.3262 41.2478" stroke="#163050" stroke-width="2.36328" stroke-linecap="round" stroke-linejoin="round"/>
<path d="M77.1053 56.181C77.1053 54.3073 74.5733 51.9609 74.5733 51.9609C74.5733 51.9609 72.0413 54.2116 72.0413 56.181C72.0413 56.8525 72.308 57.4965 72.7829 57.9714C73.2577 58.4462 73.9018 58.713 74.5733 58.713C75.2448 58.713 75.8889 58.4462 76.3637 57.9714C76.8385 57.4965 77.1053 56.8525 77.1053 56.181Z" fill="#0088CC" stroke="#163050" stroke-width="2.36328" stroke-linecap="round" stroke-linejoin="round"/>
</svg>
