<svg width="88" height="95" viewBox="0 0 88 95" fill="none" xmlns="http://www.w3.org/2000/svg">
<path d="M58.2398 77.4459C53.9357 76.8543 49.661 74.3534 48.5212 78.092C48.431 79.8095 48.8487 81.6305 55.257 83.0343C61.6654 84.4381 65.2796 84.3505 65.6723 81.5872C66.065 78.8239 62.5438 78.0374 58.2398 77.4459Z" fill="white" stroke="#153150" stroke-width="1.89171" stroke-linecap="round" stroke-linejoin="round"/>
<path d="M53.7925 77.3225C53.685 72.1344 54.7853 65.1252 55.3488 62.2691L49.8939 62.8606C49.8096 68.0963 50.6272 75.1043 51.0466 77.9538C51.5137 79.4088 53.8212 78.7043 53.7925 77.3225Z" fill="#FFD168" stroke="#153150" stroke-width="1.89171" stroke-linecap="round" stroke-linejoin="round"/>
<path d="M36.2913 82.5522C32.6324 84.1954 26.3602 86.1794 24.1446 81.6325C23.2504 78.8055 26.8589 78.5389 31.3877 77.4951C35.9165 76.4513 40.8636 74.8865 42.1201 77.0157C43.3767 79.1449 39.9503 80.909 36.2913 82.5522Z" fill="white" stroke="#153150" stroke-width="1.89171" stroke-linecap="round" stroke-linejoin="round"/>
<path d="M36.9068 76.9354C37.136 71.7513 36.2004 64.7182 35.7039 61.8497L41.1435 62.5689C41.105 67.8052 40.1233 74.792 39.6372 77.6309C39.3162 78.691 36.8372 78.5122 36.9068 76.9354Z" fill="#FFD168" stroke="#153150" stroke-width="1.89171" stroke-linecap="round" stroke-linejoin="round"/>
<path d="M8.5346 6.4807C8.5346 3.52591 10.7507 1.45755 13.8532 1.30981C24.4905 0.571113 62.4596 1.30981 77.5291 1.90077C80.3362 2.04851 82.8477 4.11686 82.8477 7.51488C82.8477 10.1742 82.8477 18.0044 82.8477 18.0044V17.8567V28.4878C82.8477 32.3239 79.7339 35.4316 75.8978 35.424L14.8983 35.304C11.0032 35.2963 7.87811 32.0837 7.97795 28.1899L8.5346 6.4807Z" fill="#0DBAEC" stroke="#153150" stroke-width="1.89171" stroke-linecap="round" stroke-linejoin="round"/>
<path opacity="0.2" d="M13.4104 8.99198C13.4104 8.99198 58.4711 8.99198 77.9727 8.84424C80.4843 8.99198 82.5527 9.87842 82.5527 15.197C82.5527 15.197 82.2572 12.2423 75.0179 12.39C67.6309 12.5377 14.0014 11.799 14.0014 11.799C7.05759 10.4694 7.64855 5.00301 14.5923 6.62815C13.1149 8.40102 13.4104 8.99198 13.4104 8.99198Z" fill="#153150"/>
<path d="M82.6997 34.8467C85.95 35.7331 86.6887 31.1532 86.6887 25.8345C86.6887 23.0275 85.0635 20.6636 82.6997 19.334V34.8467Z" fill="#0D88CA" stroke="#153150" stroke-width="1.89171" stroke-linecap="round" stroke-linejoin="round"/>
<path d="M77.5294 65.5767C54.7774 67.2019 36.3099 66.7586 13.8535 65.1335C10.6032 64.838 8.83031 62.3264 8.68257 59.8149C7.20517 43.5635 6.76195 25.3915 8.53483 6.1853C8.53483 9.73106 11.1941 11.6517 13.8535 11.6517C35.5712 12.6859 56.5503 12.8336 77.5294 12.3904C79.0068 12.3904 80.3364 12.9813 81.2228 14.0155C82.1022 15.0414 82.6908 16.358 82.7001 17.677C82.7003 17.6983 82.7002 17.6989 82.7003 17.7202C82.7066 18.4004 82.9925 49.8837 82.7002 60.4058C82.7002 63.2129 80.6319 65.429 77.5294 65.5767Z" fill="#0DBAEC" stroke="#153150" stroke-width="1.89171" stroke-linecap="round" stroke-linejoin="round"/>
<path d="M39.9912 43.6503H48.4344M48.4344 40.984V46.0944" stroke="#153150" stroke-width="1.89171" stroke-linecap="round" stroke-linejoin="round"/>
<path d="M58.9141 56.6365H56.4025C55.516 56.6365 54.7773 55.8978 54.7773 55.0114C54.7773 54.1249 55.516 53.3862 56.4025 53.3862H58.9141C59.8005 53.3862 60.5392 54.1249 60.5392 55.0114C60.5392 55.8978 59.9482 56.6365 58.9141 56.6365Z" fill="#153150"/>
<path d="M57.6694 55.0114H68.7016C70.0946 55.0114 71.2239 53.8821 71.2239 52.4891V50.0786M58.9141 56.6365H56.4025C55.516 56.6365 54.7773 55.8978 54.7773 55.0114C54.7773 54.1249 55.516 53.3862 56.4025 53.3862H58.9141C59.8005 53.3862 60.5392 54.1249 60.5392 55.0114C60.5392 55.8978 59.9482 56.6365 58.9141 56.6365Z" stroke="#153150" stroke-width="1.89171" stroke-linecap="round" stroke-linejoin="round"/>
<path d="M74.728 16.5956C77.3276 16.5524 78.0398 17.9936 78.5291 19.821" stroke="#153150" stroke-width="1.89171" stroke-linecap="round" stroke-linejoin="round"/>
<path d="M75.3398 62.129C77.8578 61.7812 79.0545 60.1553 79.0928 57.8603" stroke="#153150" stroke-width="1.89171" stroke-linecap="round" stroke-linejoin="round"/>
<path opacity="0.15" d="M84.6209 45.4838C84.6209 53.4618 58.6187 57.5985 58.6187 43.4155C58.6187 27.3118 79.7455 34.4033 84.6209 31.0053C84.6209 30.8576 84.6209 41.3471 84.6209 45.4838Z" fill="#153150"/>
<path d="M79.4496 49.1776L71.7672 49.4731C61.7208 49.9163 61.7208 34.1081 71.7672 33.8127L79.4496 33.5172C83.4386 33.3694 86.6889 29.9714 86.6889 25.8347V25.3915V41.4951C86.6889 45.4841 83.4386 49.0299 79.4496 49.1776Z" fill="#0DBAEC" stroke="#153150" stroke-width="1.89171" stroke-linecap="round" stroke-linejoin="round"/>
<line x1="83.0152" y1="37.3366" x2="83.0152" y2="41.8093" stroke="#153150" stroke-width="1.89171" stroke-linecap="round" stroke-linejoin="round"/>
<path d="M13.9624 11.3411V9.61462C13.9624 7.61116 15.5314 5.95366 17.5318 5.84323C38.9317 4.66185 52.2584 4.66084 73.3076 5.8402C75.3065 5.95219 76.8728 7.60905 76.8728 9.61105V12.2754" stroke="#153150" stroke-width="1.89171" stroke-linecap="round" stroke-linejoin="round"/>
<circle cx="72.7248" cy="41.665" r="3.06909" fill="#FFD168" stroke="#153150" stroke-width="1.89171" stroke-linecap="round" stroke-linejoin="round"/>
<path d="M7.20507 32.6305C3.95479 34.8466 1 38.6878 1 44.5974C1 56.5644 17.3991 67.6448 22.2745 59.2237C24.1952 55.8257 20.6494 51.098 17.3991 50.9502C12.8192 50.6548 10.8986 54.2005 10.8986 54.2005C3.80705 50.2115 2.18192 40.6084 7.35281 35.8808L7.20507 32.6305Z" fill="white" stroke="#153150" stroke-width="1.89171" stroke-linecap="round" stroke-linejoin="round"/>
<path d="M37.4913 37.3582H29.8089C28.036 37.3582 26.5586 35.8808 26.5586 34.1079V29.6757C26.5586 27.9028 28.036 26.4254 29.8089 26.4254H37.4913C39.2642 26.4254 40.7416 27.9028 40.7416 29.6757V34.1079C40.7416 35.8808 39.412 37.3582 37.4913 37.3582Z" fill="#153150" stroke="#153150" stroke-width="1.89171" stroke-linecap="round" stroke-linejoin="round"/>
<path d="M39.9912 31.0568H47.8789" stroke="#153150" stroke-width="1.89171" stroke-linecap="round" stroke-linejoin="round"/>
<path d="M58.6183 37.3582H50.9358C49.1629 37.3582 47.6855 35.8808 47.6855 34.1079V29.6757C47.6855 27.9028 49.1629 26.4254 50.9358 26.4254H58.6183C60.3912 26.4254 61.8686 27.9028 61.8686 29.6757V34.1079C61.8686 35.8808 60.3912 37.3582 58.6183 37.3582Z" fill="#153150" stroke="#153150" stroke-width="1.89171" stroke-linecap="round" stroke-linejoin="round"/>
<path d="M50.9101 28.8802L50.9101 30.5863M50.9101 33.3201L50.9102 33.4259" stroke="white" stroke-width="1.89171" stroke-linecap="round" stroke-linejoin="round"/>
<path d="M29.9131 28.8802L29.9131 30.5863M29.9131 33.3201L29.9131 33.4259" stroke="white" stroke-width="1.89171" stroke-linecap="round" stroke-linejoin="round"/>
</svg>
