<svg fill="none" xmlns="http://www.w3.org/2000/svg" viewBox="0 0 96 99"><g clip-path="url(#clip0)"><path fill-rule="evenodd" clip-rule="evenodd" d="M92.0425 64.7601V41.7995c-.0112-5.177-4.2073-9.3679-9.3795-9.3679H71.9989a9.3546 9.3546 0 00-6.6119 2.7583 9.372 9.372 0 00-2.7268 6.63v7.4495c.0112 5.177 4.2073 9.3679 9.3795 9.3678h11.6632c3.8826-.2097 7.3732 2.3531 8.3396 6.1229z" fill="#0C9FE1" stroke="#163150" stroke-width="3.2995" stroke-linecap="round" stroke-linejoin="round"/><path fill-rule="evenodd" clip-rule="evenodd" d="M12.8653 77.2697V27.6546c0-2.9594 2.4468-5.674 6.7084-5.674h57.6636a5.3812 5.3812 0 013.8183 1.5494 5.3905 5.3905 0 011.6055 3.798l.1634 37.7369c.034 3.0087-2.3576 5.4844-5.363 5.5514H19.2066a6.4201 6.4201 0 00-4.5697 1.9908 6.4324 6.4324 0 00-1.7716 4.6626z" fill="#0C9FE1" stroke="#163150" stroke-width="3.2995" stroke-linecap="round" stroke-linejoin="round"/><path fill-rule="evenodd" clip-rule="evenodd" d="M45.3062 22.0839c-6.5453-1.6736-10.8272-2.9186-13.6411-5.5718-2.8138-2.6532-4.3635-7.2249-6.117-14.2865-1.9167 7.5514-3.5275 12.2456-7.0143 15.1845-2.7731 2.2655-6.7695 3.1023-12.7643 4.633 13.5392 3.4491 16.3122 6.2452 19.7786 19.797 3.4255-13.511 6.219-16.307 19.7581-19.7562z" fill="#FFD166" stroke="#163150" stroke-width="3.2995" stroke-linecap="square" stroke-linejoin="round"/><path fill-rule="evenodd" clip-rule="evenodd" d="M82.826 40.4109l-.1633 37.7165c-.0225 2.9791-2.4475 5.379-5.4238 5.3677l-56.2159-.2449h-3.0178c-2.9683-.0225-5.3626-2.4374-5.3626-5.4085l.2243-49.6151a6.4112 6.4112 0 001.8016 4.664 6.3996 6.3996 0 004.6009 1.9486h1.3254l56.9499.1429c2.949.0558 5.304 2.4766 5.2813 5.4288z" fill="#1EB8E7"/><path fill-rule="evenodd" clip-rule="evenodd" d="M23.7562 34.8392l-.5301 48.3906c-3.446 0-10.4195 1.1021-10.4195-5.4085V28.2266c.0612 6.8371 8.2173 6.6126 10.9496 6.6126z" fill="#0C9FE1"/><path clip-rule="evenodd" d="M12.8663 28.2061l-.1631 48.6354a6.2484 6.2484 0 001.8856 4.9307 6.236 6.236 0 004.9859 1.7228h57.6636c2.9763.0113 5.4013-2.3886 5.4238-5.3677l.1633-37.7369c.0228-3.0007-2.3655-5.4641-5.3628-5.5309h-58.255a6.4201 6.4201 0 01-4.5697-1.9908 6.4325 6.4325 0 01-1.7716-4.6626z" stroke="#163150" stroke-width="3.2995" stroke-linecap="round" stroke-linejoin="round"/><path fill-rule="evenodd" clip-rule="evenodd" d="M92.0418 43.2275v22.9606c-.0336 5.161-4.2232 9.327-9.3795 9.327H67.4715c-5.1549-.0446-9.3166-4.2283-9.3387-9.3883v-7.4494c.0336-5.1644 4.2199-9.3364 9.3795-9.3475h16.3122c3.8318.1524 7.252-2.3876 8.2173-6.1024z" fill="#1EB8E7"/><path fill-rule="evenodd" clip-rule="evenodd" d="M82.8233 59.1883c8.8086 5.2248.9584 18.5725-7.891 13.3477l-6.8307-2.8981 6.6472-14.5315 8.0745 4.0819z" fill="#0C9FE1"/><path d="M75.9428 65.2349c1.547-2.5287.752-5.8322-1.7756-7.3785-2.5277-1.5464-5.8308-.75-7.3778 1.7788-1.547 2.5287-.752 5.8322 1.7756 7.3786 2.5277 1.5463 5.8308.7499 7.3778-1.7789z" fill="#B3C1D6" stroke="#163150" stroke-width="3.2995" stroke-linecap="round" stroke-linejoin="round"/><path clip-rule="evenodd" d="M92.0418 43.2275v22.9606c-.0336 5.161-4.2232 9.327-9.3795 9.327H67.4715c-5.1549-.0446-9.3166-4.2283-9.3387-9.3883v-7.4494c.0336-5.1644 4.2199-9.3364 9.3795-9.3475h16.3122c3.8318.1524 7.252-2.3876 8.2173-6.1024z" stroke="#163150" stroke-width="3.2995" stroke-linecap="round" stroke-linejoin="round"/><path fill-rule="evenodd" clip-rule="evenodd" d="M64.2908 83.2911c-8.9921-2.2859-10.8476-4.0819-13.1517-13.1436-1.101 4.3267-1.937 7.5106-3.6702 9.3883-1.7332 1.8776-4.8121 2.5715-9.4611 3.7553 8.9921 2.3062 10.8476 4.0819 13.1313 13.164 1.0807-4.2247 1.8759-7.3269 3.5479-9.1842 1.672-1.8572 4.8325-2.7553 9.6038-3.9798z" fill="#FFD166" stroke="#163150" stroke-width="3.2995" stroke-linecap="square" stroke-linejoin="round"/><path d="M44.7362 58.2291H28.791m7.9726-7.9801v15.9601V50.249z" stroke="#E3EDFF" stroke-width="3.2995" stroke-linecap="round" stroke-linejoin="round"/><path opacity=".4" d="M3.5684 62.9639l.0407-9.1026M15.823 92.1697c-7.015-1.1355-12.186-7.174-12.2341-14.2866v-4.6533M57.1758 12.8379h5.9743m8.8494 0h5.2811c8.002.0112 14.4862 6.5015 14.4974 14.511" stroke="#B5BFC7" stroke-width="3.2995" stroke-linecap="round" stroke-linejoin="round"/></g><defs><clipPath id="clip0"><path fill="#fff" d="M0 0h95.6858v98.9854H0z"/></clipPath></defs></svg>
